<svg width="33" height="30" viewBox="0 0 33 30" fill="none" xmlns="http://www.w3.org/2000/svg">
<path d="M16.5 0H0V30H16.5V0Z" fill="#F16923"/>
<path d="M12.6516 9.50283V20.419C12.6516 24.2397 11.1849 26.111 8.17437 26.111C5.00946 26.111 3.85156 24.0058 3.85156 20.419V9.50283C3.85156 5.83811 5.39542 3.88879 8.32876 3.88879C11.3393 3.88879 12.6516 6.07203 12.6516 9.50283ZM6.09016 9.42486V20.6529C6.09016 23.0701 6.93928 24.0837 8.25156 24.0837C9.71823 24.0837 10.413 23.1481 10.413 20.575V9.42486C10.413 7.08568 9.64104 5.99406 8.17437 5.99406C6.7077 5.99406 6.09016 7.08568 6.09016 9.42486Z" fill="white"/>
<path d="M33 0H16.5V30H33V0Z" fill="#828282"/>
<path d="M23.6981 6.0644H20.4629V3.88879H29.0399V6.0644H25.8047V26.111H23.6981V6.0644Z" fill="white"/>
</svg>
