<svg width="46" height="50" viewBox="0 0 46 50" fill="none" xmlns="http://www.w3.org/2000/svg">
<path d="M2.12349 50C1.76369 49.8259 1.38891 49.6954 1.05909 49.4778C0.384472 49.0136 0.0396664 48.3463 0.00968335 47.5629C-0.170215 41.5138 2.15347 36.6251 7.23561 33.0565C8.89967 31.896 10.7586 31.1127 12.7525 30.6049C13.0973 30.5179 13.3222 30.5614 13.592 30.8225C15.1212 32.2877 16.8902 33.3612 18.944 34.0285C19.1539 34.101 19.3638 34.2896 19.4537 34.4782C20.1883 35.8708 21.3576 36.7266 22.9467 36.7702C25.1505 36.8427 27.3543 36.8572 29.543 36.7121C32.7662 36.4945 35.3448 35.0149 37.3536 32.5778C37.4136 32.5053 37.4736 32.4328 37.6085 32.2877C38.2831 32.7374 38.9727 33.1581 39.6024 33.6513C43.695 36.8862 45.8089 41.0786 45.9888 46.1848C46.0037 46.591 46.0037 46.9972 45.9888 47.4034C45.9738 48.6074 45.2842 49.5068 44.0998 49.8985C44.0249 49.9275 43.9499 49.971 43.8899 50C29.9778 50 16.0506 50 2.12349 50Z" fill="#FD5E65"/>
<path d="M19.7231 30.5614C17.0096 29.6765 15.1207 27.7617 13.0818 23.8159C12.9769 23.9465 12.8719 24.0626 12.782 24.1786C11.9874 25.107 10.6832 25.4697 9.49883 25.078C8.34448 24.7008 7.50496 23.6564 7.48997 22.4668C7.45998 19.9717 7.47498 17.4912 7.48997 14.996C7.48997 14.2127 7.84976 13.5599 8.41944 12.9942C8.58435 12.8201 8.73427 12.5735 8.76425 12.3414C9.48384 5.87152 14.8658 0.707244 21.582 0.0689622C29.2877 -0.670864 36.2288 4.62397 37.2332 12.0077C37.2932 12.4719 37.4131 12.8491 37.7879 13.1973C38.3276 13.6905 38.5674 14.3723 38.5674 15.0976C38.5674 17.5202 38.5824 19.9427 38.5674 22.3798C38.5674 23.1777 38.2376 23.845 37.6829 24.4397C37.518 24.6138 37.3831 24.9039 37.3981 25.1505C37.4281 26.6447 37.2782 28.1098 36.5736 29.4734C34.9395 32.6648 32.286 34.3621 28.6131 34.4781C26.889 34.5362 25.15 34.4927 23.411 34.4927C22.2866 34.4927 21.5071 33.7818 21.5071 32.7809C21.5071 31.7655 22.2566 31.0546 23.396 31.0401C25.0451 31.0256 26.6941 31.0546 28.3432 31.0401C31.0567 31.0111 33.1705 29.4154 33.6802 26.9493C33.8151 26.282 33.7701 25.5857 33.8001 24.9039C33.8001 24.7879 33.7252 24.6573 33.6352 24.5703C33.4403 24.3382 33.2155 24.1061 32.9756 23.8595C32.7207 24.4107 32.5109 24.9619 32.211 25.4842C31.7913 26.2095 31.3415 26.9058 30.8468 27.5876C30.2471 28.4 29.3776 28.7481 28.3582 28.7336C26.8441 28.7191 25.3299 28.7626 23.8158 28.7191C22.0767 28.6321 20.7125 29.1833 19.7231 30.5614ZM13.1568 13.734C15.1207 9.64319 18.014 6.65487 23.0062 6.64036C28.0134 6.62586 30.9218 9.62868 32.8856 13.734C33.3804 13.2118 33.8001 12.7621 33.6052 11.8917C32.4959 6.87247 27.9684 3.3184 22.7364 3.47797C17.4294 3.63754 13.0818 7.4092 12.3622 12.4864C12.3472 12.6315 12.3622 12.8201 12.4522 12.9361C12.6621 13.2118 12.9169 13.4729 13.1568 13.734Z" fill="#FD5E65"/>
</svg>
