<svg width="62" height="50" viewBox="0 0 62 50" fill="none" xmlns="http://www.w3.org/2000/svg">
<path d="M30.9996 50C21.7367 50 12.503 50 3.24013 50C0.756381 50 0.230469 49.4656 0.230469 46.9715C0.230469 32.3337 0.230469 17.6663 0.230469 3.0285C0.230469 0.564132 0.785602 0 3.24013 0C21.7952 0 40.3502 0 58.9052 0C61.1844 0 61.7689 0.593823 61.7689 2.88005C61.7689 17.6366 61.7689 32.3634 61.7689 47.1199C61.7689 49.4062 61.1552 50 58.9052 50C49.6131 50 40.2918 50 30.9996 50ZM5.13946 25C5.13946 29.5428 5.13946 34.1152 5.13946 38.658C5.13946 40.5285 5.31487 40.7363 7.12654 40.7363C14.081 40.7363 21.0647 40.7363 28.0192 40.7363C29.8309 40.7363 30.0062 40.5582 30.0062 38.658C30.0062 29.5428 30.0062 20.4572 30.0062 11.342C30.0062 9.47149 29.8308 9.26366 28.0483 9.26366C21.0938 9.26366 14.1101 9.26366 7.15565 9.26366C5.3732 9.26366 5.16868 9.47149 5.13946 11.342C5.13946 15.8848 5.13946 20.4572 5.13946 25ZM45.756 15.0831C48.6196 15.0831 51.4832 15.0831 54.3468 15.0831C56.1 15.0831 57.1229 14.2518 57.0936 12.9454C57.0644 11.6686 56.0709 10.8967 54.4053 10.8967C48.7073 10.8967 43.0385 10.8967 37.3405 10.8967C35.7042 10.8967 34.6814 11.6983 34.6522 12.9751C34.623 14.2518 35.6457 15.0831 37.282 15.1128C40.1164 15.0831 42.9508 15.0831 45.756 15.0831ZM45.8145 23.0998C48.6781 23.0998 51.5417 23.0998 54.4053 23.0998C56.0709 23.0998 57.0644 22.3278 57.0936 21.0511C57.1229 19.715 56.0708 18.9133 54.3468 18.9133C48.7072 18.9133 43.0677 18.9133 37.4281 18.9133C35.7041 18.9133 34.6522 19.7447 34.6814 21.0511C34.7107 22.3278 35.7042 23.0998 37.3698 23.1295C40.2042 23.0998 43.0093 23.0998 45.8145 23.0998ZM45.8437 26.9002C43.0386 26.9002 40.2041 26.9002 37.3989 26.9002C35.7333 26.9002 34.7399 27.6722 34.6814 28.9192C34.6522 30.2257 35.7041 31.0867 37.4281 31.0867C43.1261 31.0867 48.7949 31.0867 54.4929 31.0867C56.1293 31.0867 57.1227 30.2553 57.1227 28.9786C57.1227 27.7019 56.1294 26.9002 54.4638 26.9002C51.6002 26.9002 48.7366 26.9002 45.8437 26.9002ZM45.756 39.133C48.6196 39.133 51.4832 39.133 54.3468 39.133C56.1 39.133 57.1229 38.3313 57.0936 36.9952C57.0644 35.7185 56.0709 34.9169 54.4053 34.9169C48.7073 34.9169 43.0385 34.9169 37.3405 34.9169C35.7042 34.9169 34.6814 35.7185 34.6522 36.9656C34.623 38.272 35.6749 39.1033 37.3989 39.1033C40.2041 39.133 42.98 39.133 45.756 39.133Z" fill="#0B98D3"/>
<path d="M17.4999 13.272C21.4447 13.2423 23.6654 15.4097 23.7823 19.418C23.8115 20.19 24.0161 20.9323 24.2206 21.6746C24.6589 23.1888 24.1036 24.4952 23.4024 25.7423C23.0225 26.4252 22.5842 27.0784 22.2628 27.791C21.2693 29.7803 19.8082 31.2352 17.529 31.2055C15.279 31.1758 13.818 29.6912 12.883 27.6722C12.2693 26.3361 11.4512 25.0891 10.9836 23.7233C10.7499 23.0107 11.0421 22.12 11.159 21.3183C11.2466 20.6057 11.422 19.8931 11.4804 19.1508C11.7142 15.2316 13.672 13.3017 17.4999 13.272Z" fill="#0B98D3"/>
<path d="M7.18508 38.6877C7.18508 36.6093 7.12667 34.6793 7.21433 32.7494C7.24355 32.3041 7.65261 31.7399 8.0617 31.443C8.55845 31.057 9.20138 30.8789 9.75657 30.6117C11.3637 29.8694 12.6786 29.1568 14.4319 30.9976C16.4481 33.1354 19.5162 32.5713 21.7077 30.2554C22.3214 29.6022 22.7596 29.4537 23.5486 29.8694C24.8927 30.5523 26.7629 30.7601 27.5226 31.829C28.2531 32.8682 27.9317 34.709 27.9609 36.2233C28.0193 38.9252 28.3407 38.7173 25.594 38.747C19.7499 38.7767 13.9058 38.7767 8.0617 38.7767C7.85715 38.7767 7.62339 38.747 7.18508 38.6877Z" fill="#0B98D3"/>
</svg>
