<svg width="50" height="50" viewBox="0 0 50 50" fill="none" xmlns="http://www.w3.org/2000/svg">
<path d="M2.84256 0C12.7131 0 22.5739 0 32.4445 0C32.4641 0.0195312 32.4935 0.0488281 32.5131 0.0585938C34.4538 0.654297 35.287 1.76758 35.287 3.78906C35.287 9.25781 35.287 14.7266 35.287 20.1953C35.287 20.3809 35.287 20.5762 35.287 20.7715C33.1894 20.9668 31.2584 21.543 29.4254 22.4512C29.347 21.0352 28.8863 20.6055 27.4945 20.6055C24.6225 20.6055 21.7407 20.6055 18.8688 20.6055C17.026 20.6055 15.1734 20.6055 13.3307 20.6055C12.6641 20.6055 12.1544 20.8887 11.88 21.5039C11.4291 22.5098 12.1838 23.5352 13.3699 23.5352C17.8984 23.5352 22.4171 23.5352 26.9456 23.5352C27.1122 23.5352 27.2886 23.5352 27.4258 23.5352C26.5143 24.3848 25.6027 25.1953 24.7499 26.0645C24.4559 26.3672 24.1912 26.4746 23.7893 26.4746C20.3292 26.4648 16.8593 26.4746 13.3993 26.4648C12.7131 26.4648 12.1838 26.7188 11.8898 27.3438C11.4389 28.3203 12.1642 29.3848 13.3012 29.3945C16.1438 29.4043 18.9864 29.3945 21.8289 29.3945C21.9956 29.3945 22.1622 29.3945 22.3386 29.3945C21.927 30.4102 21.5545 31.3574 21.1722 32.3242C21.035 32.3242 20.888 32.3242 20.7409 32.3242C18.2904 32.3242 15.8399 32.3242 13.3895 32.3242C12.7229 32.3242 12.2034 32.5684 11.9094 33.1738C11.4291 34.1699 12.1544 35.2539 13.3208 35.2539C15.5949 35.2637 17.8591 35.2539 20.1332 35.2539C20.2998 35.2539 20.4763 35.2539 20.6527 35.2539C20.3782 38.3691 20.937 41.25 22.2896 44.043C22.0544 44.043 21.8976 44.043 21.7407 44.043C15.7125 44.043 9.68433 44.043 3.65613 44.043C1.45069 44.043 0 42.5977 0 40.4102C0 37.1094 0 33.7988 0 30.498C0 21.5332 0 12.5586 0 3.59375C0 1.97266 0.862571 0.703125 2.30346 0.195312C2.47989 0.126953 2.66613 0.0683594 2.84256 0ZM20.5841 8.88672C18.1728 8.88672 15.7517 8.88672 13.3405 8.88672C12.6739 8.88672 12.1642 9.16992 11.8898 9.77539C11.4389 10.7812 12.1936 11.8164 13.3699 11.8164C18.1532 11.8164 22.9366 11.8164 27.7101 11.8164C28.7393 11.8164 29.4156 11.2207 29.4058 10.332C29.396 9.46289 28.7295 8.88672 27.7297 8.88672C25.3478 8.88672 22.966 8.88672 20.5841 8.88672ZM20.5841 14.7461C18.2022 14.7461 15.8203 14.7363 13.4385 14.7559C13.1052 14.7559 12.7523 14.834 12.4583 14.9902C11.8898 15.2832 11.6447 15.9863 11.8211 16.582C12.0172 17.2656 12.5563 17.666 13.3208 17.6758C18.1532 17.6758 22.9856 17.6758 27.8081 17.6758C28.7491 17.6758 29.4156 17.0508 29.4058 16.2012C29.396 15.3516 28.7393 14.7559 27.7787 14.7559C25.3772 14.7461 22.9856 14.7461 20.5841 14.7461ZM8.82176 22.0898C8.83156 21.2988 8.17483 20.625 7.38087 20.6055C6.58691 20.5859 5.90078 21.2305 5.88117 22.0215C5.86157 22.832 6.5281 23.5254 7.34166 23.5254C8.14542 23.5352 8.81195 22.8809 8.82176 22.0898ZM8.82176 10.3613C8.83156 9.57031 8.16502 8.89648 7.37106 8.88672C6.57711 8.87695 5.90078 9.52148 5.88117 10.3125C5.86157 11.123 6.5379 11.8066 7.35146 11.8066C8.15522 11.8164 8.82176 11.1523 8.82176 10.3613ZM7.35146 14.7461C6.55751 14.7461 5.89097 15.4102 5.89097 16.2012C5.89097 16.9922 6.5477 17.6562 7.34166 17.6758C8.15522 17.6855 8.84136 17.002 8.83156 16.1914C8.81195 15.4004 8.14542 14.7461 7.35146 14.7461ZM8.82176 27.9199C8.82176 27.1289 8.15522 26.4648 7.35146 26.4648C6.55751 26.4648 5.89097 27.1191 5.88117 27.9102C5.87137 28.7207 6.5575 29.4043 7.37106 29.3848C8.16502 29.3848 8.83156 28.7109 8.82176 27.9199ZM8.82176 33.7793C8.82176 32.9883 8.15522 32.3242 7.36126 32.3242C6.56731 32.3242 5.90077 32.9785 5.89097 33.7695C5.88117 34.5801 6.56731 35.2637 7.38087 35.2441C8.16502 35.2441 8.83156 34.5703 8.82176 33.7793Z" fill="#303F9F"/>
<path d="M36.7669 50C29.4644 50 23.5146 44.0625 23.5342 36.7969C23.544 29.541 29.484 23.6328 36.7669 23.6328C44.0693 23.6328 50.0191 29.5605 49.9995 36.8359C49.9799 44.0918 44.0399 50 36.7669 50ZM35.2868 35.2539C34.2674 35.2539 33.3068 35.2441 32.3462 35.2539C31.513 35.2637 30.8759 35.9082 30.8759 36.709C30.8759 37.5098 31.5032 38.1641 32.3364 38.1738C33.8067 38.1934 35.277 38.1934 36.7473 38.1738C37.5902 38.1641 38.2175 37.5586 38.2273 36.7285C38.247 34.7559 38.2372 32.793 38.2273 30.8203C38.2273 30.2148 37.9039 29.7656 37.355 29.5215C36.3846 29.082 35.3162 29.7852 35.3064 30.8887C35.277 32.3145 35.2868 33.75 35.2868 35.2539Z" fill="#303F9F"/>
</svg>
