<svg width="52" height="50" viewBox="0 0 52 50" fill="none" xmlns="http://www.w3.org/2000/svg">
<path d="M52.0005 15.8665C51.5944 16.789 50.9041 17.0728 49.9565 17.0587C47.2763 17.0161 44.5825 17.0445 41.8887 17.0445C41.6992 17.0445 41.5232 17.0445 41.3066 17.0445C41.3066 14.717 41.3066 12.4463 41.3066 10.1188C41.5638 10.1188 41.8075 10.1188 42.0376 10.1188C44.6772 10.1188 47.3169 10.1472 49.9429 10.1046C50.8905 10.0904 51.5809 10.3743 51.987 11.2967C52.0005 12.8153 52.0005 14.3338 52.0005 15.8665Z" fill="#FF7502"/>
<path d="M51.9994 36.09C51.5933 37.0125 50.9029 37.3105 49.9553 37.2821C48.2633 37.2253 46.5712 37.2679 44.8791 37.2679C44.7031 37.2679 44.5136 37.2679 44.3105 37.2679C44.3105 34.9546 44.3105 32.6981 44.3105 30.3565C44.473 30.3565 44.6489 30.3565 44.8385 30.3565C46.5441 30.3565 48.2497 30.399 49.9553 30.3423C50.9029 30.3139 51.5933 30.6119 51.9994 31.5344C51.9994 33.0387 51.9994 34.5573 51.9994 36.09Z" fill="#FF7502"/>
<path d="M41.2392 33.209C41.2798 35.4656 41.2662 37.7079 40.6436 39.9076C39.3982 44.2503 36.8804 47.5003 33.1037 49.7C32.4404 50.0832 31.8178 50.1116 31.1409 49.7142C25.9293 46.592 23.1814 41.8945 22.9783 35.5933C22.9242 33.7909 22.9648 31.9743 22.9648 30.172C22.9648 29.2211 23.2897 28.7528 24.1425 28.4122C29.4488 26.255 34.7687 26.255 40.0751 28.4122C40.9279 28.7528 41.2392 29.2353 41.2392 30.1862C41.2392 31.1938 41.2392 32.2014 41.2392 33.209ZM30.9785 38.5878C30.5994 38.1336 30.2881 37.7221 29.9226 37.3531C29.3 36.7286 28.3524 36.7712 27.7838 37.3956C27.2153 38.0059 27.2018 38.9568 27.7974 39.6096C28.5148 40.3901 29.2458 41.1565 29.9903 41.9087C30.5724 42.4905 31.4387 42.5615 32.0208 41.9796C33.5369 40.4469 35.0259 38.8716 36.5014 37.2821C36.9211 36.828 36.9887 36.2319 36.7451 35.65C36.5014 35.054 36.0682 34.7418 35.4591 34.685C34.9312 34.6424 34.5115 34.8695 34.1596 35.2669C33.1172 36.3171 32.0885 37.3956 30.9785 38.5878Z" fill="#FF7502"/>
<path d="M20.04 6.88306C20.04 4.58398 20.04 2.31327 20.04 0.0283813C24.0198 0.0283813 27.9589 0.0283813 31.9522 0.0283813C31.9522 2.29908 31.9522 4.56978 31.9522 6.88306C27.9995 6.88306 24.0469 6.88306 20.04 6.88306Z" fill="#FF7502"/>
<path d="M16.9542 20.266C16.9542 22.5651 16.9542 24.8216 16.9542 27.1207C12.9744 27.1207 9.03528 27.1207 5.04199 27.1207C5.04199 24.8642 5.04199 22.5793 5.04199 20.266C8.98113 20.266 12.9474 20.266 16.9542 20.266Z" fill="#FF7502"/>
<path d="M16.9403 0.0283727C16.9403 2.34165 16.9403 4.59816 16.9403 6.89725C12.9605 6.89725 9.00782 6.89725 4.98746 6.89725C4.98746 6.67018 4.98746 6.4573 4.98746 6.23023C4.98746 4.71169 4.97392 3.17897 4.98746 1.66044C5.001 0.695391 5.63723 0.014181 6.55772 0.014181C9.94186 -1.08453e-05 13.326 0.014181 16.7101 0.014181C16.7778 -1.08453e-05 16.8455 0.0141808 16.9403 0.0283727Z" fill="#FF7502"/>
<path d="M35.0791 0C36.2568 0 37.4074 0 38.558 0C40.805 0 43.0521 0 45.3127 0C46.4092 0 47.0183 0.638635 47.0183 1.77399C47.0183 3.47701 47.0183 5.16585 47.0183 6.89726C43.025 6.89726 39.0724 6.89726 35.0791 6.89726C35.0791 4.61236 35.0791 2.34166 35.0791 0Z" fill="#FF7502"/>
<path d="M13.8135 10.133C17.3736 10.133 20.9067 10.133 24.4532 10.133C24.4532 12.4179 24.4532 14.6744 24.4532 16.9877C20.9202 16.9877 17.3871 16.9877 13.8135 16.9877C13.8135 14.7312 13.8135 12.4605 13.8135 10.133Z" fill="#FF7502"/>
<path d="M38.2061 17.0019C34.646 17.0019 31.113 17.0019 27.5664 17.0019C27.5664 14.717 27.5664 12.4605 27.5664 10.1472C31.0995 10.1472 34.6324 10.1472 38.2061 10.1472C38.2061 12.4179 38.2061 14.6886 38.2061 17.0019Z" fill="#FF7502"/>
<path d="M10.6999 10.1472C10.6999 12.4463 10.6999 14.717 10.6999 17.0302C10.5104 17.0302 10.348 17.0302 10.172 17.0302C7.38346 17.0302 4.59487 17.0302 1.7928 17.0302C0.601586 17.0302 0.00601625 16.42 0.00601625 15.1853C0.00601625 14.0358 -0.00752032 12.872 0.00601625 11.7225C0.0195528 10.8142 0.655785 10.1188 1.50859 10.1188C4.50017 10.1046 7.49174 10.1188 10.4969 10.1188C10.5645 10.1188 10.6052 10.133 10.6999 10.1472Z" fill="#FF7502"/>
<path d="M10.7 30.3707C10.7 32.6697 10.7 34.9404 10.7 37.2537C9.98259 37.2537 9.29221 37.2537 8.58831 37.2537C6.30063 37.2537 4.02647 37.2537 1.73879 37.2537C0.628794 37.2537 0.0196881 36.6151 0.0196881 35.4372C0.0196881 34.2876 0.00615156 33.1239 0.0196881 31.9743C0.0332247 31.0093 0.669391 30.3281 1.58988 30.3281C4.52731 30.3139 7.47831 30.3281 10.4157 30.3281C10.5105 30.3423 10.5917 30.3565 10.7 30.3707Z" fill="#FF7502"/>
<path d="M35.0654 23.7572C35.0654 22.5935 35.0654 21.4439 35.0654 20.266C39.0316 20.266 42.9979 20.266 46.9912 20.266C46.9912 22.5367 46.9912 24.8074 46.9912 27.1491C45.8406 27.1491 44.7034 27.1491 43.5528 27.1349C43.4445 27.1349 43.3227 27.0213 43.2415 26.922C42.673 26.2124 41.9555 25.7441 41.1298 25.4176C39.2617 24.6655 37.3395 24.1262 35.3632 23.8423C35.2684 23.814 35.1737 23.7856 35.0654 23.7572Z" fill="#FF7502"/>
<path d="M31.9659 20.2518C31.9659 21.3588 31.9659 22.4516 31.9659 23.5443C30.883 23.6437 29.8271 23.7147 28.7713 23.8566C26.6054 24.1546 24.4937 24.7507 22.5038 25.6873C22.0029 25.9144 21.5427 26.2976 21.1772 26.7233C20.8523 27.1065 20.5275 27.2342 20.0537 27.1207C20.0537 24.85 20.0537 22.5651 20.0537 20.266C24.0199 20.2518 27.9861 20.2518 31.9659 20.2518Z" fill="#FF7502"/>
<path d="M13.7998 37.2111C13.7998 34.9262 13.7998 32.6555 13.7998 30.3564C15.8303 30.3564 17.8337 30.3564 19.8777 30.3564C19.8777 32.6271 19.8777 34.8979 19.8777 37.2111C17.8743 37.2111 15.8574 37.2111 13.7998 37.2111Z" fill="#FF7502"/>
</svg>
