<svg width="50" height="50" viewBox="0 0 50 50" fill="none" xmlns="http://www.w3.org/2000/svg">
<path d="M14.5505 49.9778C14.5505 46.0685 14.5505 42.1814 14.5505 38.05C12.5662 39.5382 10.738 40.8931 8.90982 42.2481C8.44162 42.6035 7.97344 42.981 7.48294 43.3142C6.2567 44.1139 4.87437 43.7585 4.33928 42.448C2.91238 39.0051 1.53003 35.5401 0.170021 32.075C-0.29818 30.8756 0.23695 29.7428 1.32942 29.343C2.44418 28.921 3.53667 29.4096 4.02717 30.6091C4.96357 32.8525 5.85532 35.1181 6.74713 37.3837C6.85861 37.6724 7.01467 37.9612 7.19304 38.361C9.17732 36.895 11.0278 35.429 12.9675 34.0963C13.5695 33.6743 14.3721 33.3855 15.0855 33.3855C20.3249 33.3189 25.5644 33.3189 30.7815 33.3855C31.495 33.3855 32.3198 33.6965 32.9218 34.0963C34.8615 35.4512 36.7343 36.895 38.7185 38.4054C39.7887 35.74 40.8143 33.1856 41.8622 30.6313C42.2858 29.5873 43.1554 29.0765 44.1364 29.2319C45.1174 29.4096 45.7416 30.0093 45.8754 30.9867C45.9422 31.4309 45.7861 31.9418 45.6301 32.3638C44.3592 35.5845 43.0661 38.8052 41.7507 42.0259C40.9927 43.9139 39.6996 44.2693 38.072 43.0699C35.8648 41.4484 33.6798 39.8048 31.2496 37.9834C31.2496 42.137 31.2496 46.0685 31.2496 50C25.6981 49.9778 20.1243 49.9778 14.5505 49.9778Z" fill="#15AAA7"/>
<path d="M49.9999 20.8803C44.9835 20.8581 39.9894 20.8359 34.9729 20.8359C34.5047 20.8359 34.0142 20.8359 33.3008 20.8359C36.1323 15.9048 38.8523 11.1737 41.6392 6.28711C43.4451 9.41898 45.1395 12.3954 46.8563 15.3717C47.8819 17.1487 48.952 18.9034 49.9999 20.6804C49.9999 20.7248 49.9999 20.8136 49.9999 20.8803ZM41.6392 10.4185C40.0116 13.2616 38.4956 15.927 36.9127 18.7257C40.1678 18.7257 43.1776 18.7257 46.3882 18.7257C44.7829 15.9048 43.2668 13.2394 41.6392 10.4185Z" fill="#15AAA7"/>
<path d="M16.7355 24.9228C16.7578 21.4133 19.5447 18.7257 23.0896 18.7924C26.5231 18.859 29.31 21.6799 29.2208 25.0783C29.154 28.5211 26.3893 31.231 22.9335 31.2088C19.4109 31.1865 16.7132 28.4545 16.7355 24.9228Z" fill="#15AAA7"/>
<path d="M7.99602 24.6563C5.45436 22.1241 2.75665 19.4143 0.103516 16.7933C2.84584 14.1057 5.61043 11.3958 8.33045 8.75262C10.8275 11.2403 13.5476 13.9502 16.1561 16.5712C13.5253 19.1922 10.7829 21.902 7.99602 24.6563ZM8.24129 11.5291C6.52456 13.2394 4.74091 14.9941 3.09106 16.6156C4.8078 18.3481 6.54681 20.1251 8.08518 21.7021C9.82421 19.9918 11.6078 18.2371 13.3023 16.5712C11.6524 14.9053 9.89114 13.1506 8.24129 11.5291Z" fill="#15AAA7"/>
<path d="M31.1605 6.33156C31.0936 9.86324 28.329 12.5065 24.7618 12.462C21.3506 12.4176 18.6082 9.55228 18.6974 6.10944C18.7866 2.66661 21.6181 -0.065442 25.0516 0.00119347C28.4851 0.0678289 31.2274 2.91094 31.1605 6.33156ZM29.1094 6.26493C29.1317 3.97711 27.2812 2.0891 24.9847 2.04468C22.7329 2.00026 20.7931 3.88826 20.7708 6.17608C20.7263 8.48611 22.5545 10.3963 24.8509 10.4408C27.1697 10.463 29.0871 8.61938 29.1094 6.26493Z" fill="#15AAA7"/>
</svg>
