<svg width="50" height="50" viewBox="0 0 50 50" fill="none" xmlns="http://www.w3.org/2000/svg">
<rect opacity="0.1" width="50" height="50" rx="8" fill="#FD5E65"/>
<path d="M25 15.1383C19.4844 15.1383 15 19.5105 15 24.8883C15 30.266 19.4844 34.6383 25 34.6383C30.5156 34.6383 35 30.266 35 24.8883C35 19.5105 30.5156 15.1383 25 15.1383ZM28.0052 27.9301C27.7865 28.1434 27.5052 28.25 27.2188 28.25C26.9323 28.25 26.651 28.1434 26.4323 27.9301L24.2083 25.7617C24 25.5586 23.8802 25.2844 23.8802 24.9949V20.6633C23.8802 20.0641 24.3802 19.5816 24.9896 19.5816C25.599 19.5816 26.099 20.0691 26.099 20.6633V24.548L27.9948 26.3965C28.4427 26.823 28.4427 27.5086 28.0052 27.9301ZM18.3333 15.0164V13.0816C18.3333 12.4875 18.8333 12 19.4427 12H30.5521C31.1667 12 31.6667 12.4875 31.6667 13.0816V15.0164C29.75 13.7926 27.4583 13.0816 25 13.0816C22.5417 13.0816 20.25 13.7926 18.3333 15.0164ZM31.6667 34.9836V36.9184C31.6667 37.5176 31.1667 38 30.5573 38H19.4427C18.8281 38 18.3333 37.5176 18.3333 36.9184V34.9836C20.25 36.2074 22.5417 36.9184 25 36.9184C27.4583 36.9184 29.75 36.2074 31.6667 34.9836Z" fill="#FD5E65"/>
</svg>
