<svg width="50" height="50" viewBox="0 0 50 50" fill="none" xmlns="http://www.w3.org/2000/svg">
<rect opacity="0.1" width="50" height="50" rx="8" fill="#0B98D3"/>
<path d="M25 30.4184C22.6082 30.4184 20.6684 28.4785 20.6684 26.0867C20.6684 23.6949 22.6082 21.75 25 21.75C27.3918 21.75 29.3316 23.6898 29.3316 26.0816C29.3316 28.4734 27.3918 30.4184 25 30.4184ZM31.5 34.75C31.5 32.9574 30.0426 31.5 28.25 31.5H21.75C19.9574 31.5 18.5 32.9574 18.5 34.75V38H31.5V34.75ZM31.5 20.6684C29.1082 20.6684 27.1684 18.7285 27.1684 16.3367C27.1684 13.9449 29.1082 12 31.5 12C33.8918 12 35.8316 13.9398 35.8316 16.3316C35.8316 18.7234 33.8918 20.6684 31.5 20.6684ZM18.5 20.6684C16.1082 20.6684 14.1684 18.7285 14.1684 16.3367C14.1684 13.9449 16.1082 12 18.5 12C20.8918 12 22.8316 13.9398 22.8316 16.3316C22.8316 18.7234 20.8918 20.6684 18.5 20.6684ZM18.5 26.0816C18.5 24.482 19.0941 22.9383 20.1656 21.75H15.25C13.4574 21.75 12 23.2074 12 25V28.25H18.8758C18.627 27.5543 18.5 26.823 18.5 26.0816ZM31.1242 28.25H38V25C38 23.2074 36.5426 21.75 34.75 21.75H29.8344C31.4289 23.5121 31.9266 26.0105 31.1242 28.25Z" fill="#0B98D3"/>
</svg>
