<svg width="50" height="50" viewBox="0 0 50 50" fill="none" xmlns="http://www.w3.org/2000/svg">
<rect opacity="0.1" width="50" height="50" rx="8" fill="#41A34C"/>
<path d="M35 25.0071C35 28.1798 35 31.3596 35 34.5324C35 36.1469 34.0447 37.4595 32.5701 37.8666C32.2655 37.9509 31.9401 37.993 31.6217 37.993C27.2119 38 22.7951 38 18.3853 38C16.4746 38 15.0209 36.54 15.007 34.5886C15.0001 33.1706 15.007 31.7457 15.007 30.3278C15.007 27.0497 15.0139 23.7646 15.0001 20.4866C14.9932 19.3003 15.3808 18.3316 16.26 17.5244C17.8523 16.0714 19.4307 14.5903 20.9537 13.06C21.7152 12.302 22.5736 11.9931 23.612 12.0001C26.2704 12.0142 28.9218 12.0071 31.5801 12.0071C33.5462 12.0071 34.9931 13.4602 34.9931 15.4537C35 18.6405 35 21.8203 35 25.0071ZM23.5082 30.0189C23.5843 30.1312 23.6397 30.2155 23.6951 30.2997C24.3458 31.3035 24.9897 32.3073 25.6404 33.311C26.1042 34.027 26.9765 34.0972 27.5372 33.4584C28.2849 32.6091 29.0256 31.7527 29.7733 30.8964C30.3548 30.2295 30.9433 29.5557 31.5248 28.8818C31.8294 28.5238 31.8917 28.0254 31.684 27.6604C31.504 27.3375 31.0679 27.148 30.6248 27.2112C30.3202 27.2533 30.0848 27.4288 29.8841 27.6604C28.9633 28.7274 28.0357 29.7943 27.115 30.8613C27.0526 30.9315 26.9903 31.0016 26.9142 31.0789C26.838 30.9666 26.7757 30.8823 26.7204 30.7981C26.0627 29.7873 25.412 28.7765 24.7543 27.7657C24.3389 27.134 23.4874 27.0076 22.9821 27.5411C21.5006 29.0924 20.0399 30.6577 18.5722 32.223C18.323 32.4898 18.233 32.8127 18.3299 33.1706C18.4407 33.5848 18.7038 33.8585 19.1122 33.9638C19.5068 34.0691 19.846 33.9428 20.1229 33.648C20.9121 32.8056 21.6875 31.9633 22.4698 31.121C22.8159 30.763 23.1551 30.398 23.5082 30.0189ZM17.1392 20.0865C17.2085 20.0935 17.2569 20.1005 17.2985 20.1005C18.5861 20.1707 19.8737 20.2339 21.1614 20.3041C22.4836 20.3743 23.3974 19.4968 23.4043 18.1561C23.4113 16.9137 23.4043 15.6642 23.4043 14.4218C23.4043 14.3376 23.3974 14.2533 23.3905 14.1761C22.9544 14.1691 22.6844 14.2744 22.3936 14.5482C21.9229 14.9974 21.4521 15.4537 20.9883 15.9099C19.8599 17.005 18.7384 18.093 17.6169 19.188C17.3608 19.4266 17.16 19.6934 17.1392 20.0865ZM28.8941 22.3608C29.6625 22.3608 30.431 22.3748 31.1994 22.3537C31.8224 22.3397 32.217 21.9185 32.224 21.3008C32.2309 20.7182 31.8155 20.2198 31.2479 20.2128C29.6556 20.1988 28.0703 20.1988 26.4781 20.2128C26.0004 20.2198 25.6542 20.5498 25.5573 21.0201C25.405 21.7711 25.8481 22.3467 26.6096 22.3608C27.378 22.3678 28.1395 22.3608 28.8941 22.3608ZM28.8733 15.8889C28.1049 15.8889 27.3365 15.8818 26.5681 15.8889C25.9589 15.8959 25.5504 16.3171 25.5366 16.9348C25.5227 17.5595 25.9242 18.0298 26.5404 18.0368C28.1049 18.0508 29.6695 18.0508 31.234 18.0368C31.6425 18.0368 31.9678 17.8403 32.1409 17.4472C32.4732 16.6961 31.9678 15.8959 31.1579 15.8889C30.3894 15.8889 29.6279 15.8889 28.8733 15.8889Z" fill="#41A34C"/>
</svg>
