<svg width="50" height="50" viewBox="0 0 50 50" fill="none" xmlns="http://www.w3.org/2000/svg">
<rect opacity="0.1" width="50" height="50" rx="8" fill="#FF7502"/>
<path d="M24.9929 12.0001C32.1324 11.9784 37.9927 17.8065 38 24.9491C38.0144 32.1205 32.2913 37.9125 25.1519 37.9992C17.9402 38.0786 12.0509 32.3227 12.0003 25.1224C11.9497 17.8499 17.7523 12.0217 24.9929 12.0001ZM25.6866 21.1936C25.4626 21.1936 25.3181 21.1936 25.1736 21.1936C23.9451 21.1936 22.7167 21.1864 21.4882 21.1936C20.9318 21.1936 20.5633 21.5981 20.6067 22.1325C20.6428 22.6019 21.0258 22.9197 21.5677 22.9269C22.9479 22.9341 24.3281 22.9269 25.7155 22.9269C25.8167 22.9269 25.9251 22.9269 26.0407 22.9269C26.0263 23.028 26.019 23.093 26.0046 23.1508C25.7372 24.1474 24.8412 24.8696 23.8078 24.8913C23.0563 24.9057 22.312 24.8985 21.5605 24.8985C21.1486 24.8985 20.809 25.0285 20.6356 25.4257C20.4621 25.8229 20.5994 26.1551 20.8813 26.4585C21.6328 27.2384 22.3698 28.0329 23.1214 28.8128C23.909 29.6434 24.6967 30.4739 25.4915 31.3044C25.7372 31.5572 26.0335 31.6511 26.3803 31.55C26.7127 31.4489 26.9151 31.2177 26.9801 30.8783C27.0451 30.5461 26.9079 30.2861 26.6838 30.0478C25.6794 28.9934 24.6822 27.939 23.685 26.8846C23.62 26.8196 23.5622 26.7473 23.4827 26.6607C25.9323 26.5451 27.3703 25.3102 27.84 22.9414C28.0279 22.9269 28.2158 22.9269 28.3964 22.8908C28.83 22.8041 29.1118 22.4214 29.0757 21.9808C29.0396 21.5475 28.6999 21.2153 28.2591 21.1936C28.0857 21.1864 27.9123 21.2009 27.7461 21.1864C27.6883 21.1792 27.5943 21.1503 27.5727 21.107C27.4137 20.8037 27.2764 20.5003 27.1174 20.1681C27.4787 20.1681 27.8328 20.1753 28.1797 20.1681C28.6204 20.1609 28.9745 19.8937 29.0612 19.5037C29.1913 18.9332 28.7939 18.4421 28.1941 18.4348C26.6188 18.4276 25.0363 18.4276 23.4538 18.4276C22.7673 18.4276 22.0808 18.4132 21.3943 18.4348C20.7729 18.4565 20.3826 19.0776 20.6356 19.6337C20.8018 20.002 21.1053 20.1609 21.5027 20.1609C22.312 20.1609 23.1286 20.1465 23.9379 20.1826C24.6605 20.2115 25.2169 20.5725 25.6866 21.1936Z" fill="#FF7502"/>
<path d="M24.9929 12.0001C32.1324 11.9784 37.9927 17.8065 38 24.9491C38.0144 32.1205 32.2913 37.9125 25.1519 37.9992C17.9402 38.0786 12.0509 32.3227 12.0003 25.1224C11.9497 17.8499 17.7523 12.0217 24.9929 12.0001ZM25.6866 21.1936C25.4626 21.1936 25.3181 21.1936 25.1736 21.1936C23.9451 21.1936 22.7167 21.1864 21.4882 21.1936C20.9318 21.1936 20.5633 21.5981 20.6067 22.1325C20.6428 22.6019 21.0258 22.9197 21.5677 22.9269C22.9479 22.9341 24.3281 22.9269 25.7155 22.9269C25.8167 22.9269 25.9251 22.9269 26.0407 22.9269C26.0263 23.028 26.019 23.093 26.0046 23.1508C25.7372 24.1474 24.8412 24.8696 23.8078 24.8913C23.0563 24.9057 22.312 24.8985 21.5605 24.8985C21.1486 24.8985 20.809 25.0285 20.6356 25.4257C20.4621 25.8229 20.5994 26.1551 20.8813 26.4585C21.6328 27.2384 22.3698 28.0329 23.1214 28.8128C23.909 29.6434 24.6967 30.4739 25.4915 31.3044C25.7372 31.5572 26.0335 31.6511 26.3803 31.55C26.7127 31.4489 26.9151 31.2177 26.9801 30.8783C27.0451 30.5461 26.9079 30.2861 26.6838 30.0478C25.6794 28.9934 24.6822 27.939 23.685 26.8846C23.62 26.8196 23.5622 26.7473 23.4827 26.6607C25.9323 26.5451 27.3703 25.3102 27.84 22.9414C28.0279 22.9269 28.2158 22.9269 28.3964 22.8908C28.83 22.8041 29.1118 22.4214 29.0757 21.9808C29.0396 21.5475 28.6999 21.2153 28.2591 21.1936C28.0857 21.1864 27.9123 21.2009 27.7461 21.1864C27.6883 21.1792 27.5943 21.1503 27.5727 21.107C27.4137 20.8037 27.2764 20.5003 27.1174 20.1681C27.4787 20.1681 27.8328 20.1753 28.1797 20.1681C28.6204 20.1609 28.9745 19.8937 29.0612 19.5037C29.1913 18.9332 28.7939 18.4421 28.1941 18.4348C26.6188 18.4276 25.0363 18.4276 23.4538 18.4276C22.7673 18.4276 22.0808 18.4132 21.3943 18.4348C20.7729 18.4565 20.3826 19.0776 20.6356 19.6337C20.8018 20.002 21.1053 20.1609 21.5027 20.1609C22.312 20.1609 23.1286 20.1465 23.9379 20.1826C24.6605 20.2115 25.2169 20.5725 25.6866 21.1936Z" fill="#FF7502"/>
</svg>
