<svg width="30" height="30" viewBox="0 0 30 30" fill="none" xmlns="http://www.w3.org/2000/svg">
<rect width="30" height="30" rx="6" fill="#1976D2"/>
<path d="M13.3764 21.9887C13.3764 21.9324 13.3639 21.876 13.3639 21.8084C13.3639 19.8026 13.3639 17.808 13.3639 15.8021C13.3639 15.7457 13.3639 15.6894 13.3639 15.6105C12.5677 15.6105 11.7838 15.6105 11 15.6105C11 14.7766 11 13.954 11 13.1201C11.7838 13.1201 12.5677 13.1201 13.3639 13.1201C13.3639 13.0525 13.3639 12.9961 13.3639 12.9398C13.3639 12.2862 13.3515 11.6326 13.3764 10.9903C13.4137 10.2014 13.6625 9.49148 14.2846 8.9055C14.7449 8.46601 15.3297 8.21809 15.9767 8.08287C16.5117 7.98145 17.0467 7.99272 17.5816 8.01525C18.0171 8.02652 18.4526 8.06033 18.888 8.09414C18.9253 8.09414 18.9502 8.1054 19 8.11667C19 8.84915 19 9.58163 19 10.3367C18.9502 10.3367 18.9005 10.3367 18.8383 10.3367C18.3033 10.3479 17.7683 10.3367 17.2208 10.3592C16.5863 10.393 16.2255 10.7085 16.2006 11.2832C16.1757 11.8805 16.1882 12.489 16.1882 13.0863C16.1882 13.0975 16.2006 13.0975 16.2006 13.1313C17.084 13.1313 17.9798 13.1313 18.888 13.1313C18.7636 13.9653 18.6516 14.7879 18.5397 15.6218C17.7558 15.6218 16.9844 15.6218 16.1882 15.6218C16.1882 15.6781 16.1757 15.7119 16.1757 15.757C16.1757 17.808 16.1757 19.8589 16.1757 21.9098C16.1757 21.9437 16.1757 21.9775 16.1882 22C15.2675 21.9887 14.3219 21.9887 13.3764 21.9887Z" fill="white"/>
</svg>
