<svg width="30" height="30" viewBox="0 0 30 30" fill="none" xmlns="http://www.w3.org/2000/svg">
<rect width="30" height="30" rx="6" fill="#0077B5"/>
<path d="M15.7876 13.5654C15.9626 13.3915 16.1376 13.2176 16.3126 13.0437C16.8376 12.6089 17.4501 12.435 18.1501 12.435C18.7626 12.348 19.3751 12.435 19.9001 12.6958C20.9501 13.0437 21.4751 13.8263 21.7376 14.8698C21.9126 15.3915 21.9126 16.0002 22.0001 16.5219C22.0001 18.1741 22.0001 19.8263 22.0001 21.4785C22.0001 21.8263 21.8251 22.0002 21.4751 22.0002C20.7751 22.0002 20.1626 22.0002 19.4626 22.0002C19.0251 22.0002 18.8501 21.8263 18.8501 21.3915C18.8501 20.0872 18.8501 18.6958 18.8501 17.3915C18.8501 16.8698 18.8501 16.435 18.6751 16.0002C18.5001 15.4784 18.1501 15.2176 17.6251 15.1306C17.1001 15.0437 16.5751 15.1306 16.2251 15.6524C15.8751 16.0871 15.7001 16.6089 15.7001 17.1306C15.7001 18.5219 15.7001 20.0002 15.7001 21.3915C15.7001 21.9132 15.5251 22.0002 15.0876 22.0002C14.4751 22.0002 13.8626 22.0002 13.2501 22.0002C12.9001 22.0002 12.7251 21.8263 12.7251 21.4785C12.7251 18.6959 12.7251 15.9132 12.7251 13.1306C12.7251 12.7828 12.9001 12.6089 13.2501 12.6089C13.9501 12.6089 14.5626 12.6089 15.2626 12.6089C15.6126 12.6089 15.7876 12.7828 15.7876 13.1306C15.7876 13.3045 15.7876 13.4784 15.7876 13.5654Z" fill="white"/>
<path d="M11.4999 17.3041C11.4999 18.6084 11.4999 19.9997 11.4999 21.3041C11.4999 21.7389 11.3249 21.9128 10.8874 21.9128C10.2749 21.9128 9.66238 21.9128 9.04988 21.9128C8.69988 21.9128 8.5249 21.7389 8.5249 21.391C8.5249 18.6084 8.5249 15.8258 8.5249 13.1301C8.5249 12.7823 8.69988 12.6084 9.04988 12.6084C9.74988 12.6084 10.3624 12.6084 11.0624 12.6084C11.4124 12.6084 11.5874 12.8693 11.5874 13.2171C11.4999 14.5215 11.4999 15.9127 11.4999 17.3041Z" fill="white"/>
<path d="M8 9.91303C8 8.86955 8.87496 8 9.92496 8C10.975 8 11.85 8.86955 11.85 9.91303C11.85 10.9565 10.975 11.8261 9.92496 11.8261C8.87496 11.913 8 11.0435 8 9.91303Z" fill="white"/>
</svg>
