<svg width="30" height="30" viewBox="0 0 30 30" fill="none" xmlns="http://www.w3.org/2000/svg">
<rect width="30" height="30" rx="6" fill="#04A9F3"/>
<path d="M23 10.236C22.5939 10.7985 22.1066 11.3611 21.5381 11.763C21.4568 11.8433 21.3756 11.9237 21.3756 12.0844C21.3756 13.6114 21.0508 14.9777 20.401 16.344C19.5888 17.9513 18.4518 19.2372 16.9086 20.2017C15.8528 20.8446 14.6345 21.2465 13.335 21.4072C12.4416 21.4876 11.5482 21.5679 10.6548 21.4072C9.35533 21.2465 8.13706 20.7642 7 20.1213C8.7868 20.282 10.3299 19.8802 11.7919 18.755C11.5482 18.755 11.3046 18.755 11.1421 18.6747C10.0051 18.4336 9.27412 17.7102 8.78681 16.6654C8.70559 16.5047 8.70558 16.5047 8.94923 16.5047C9.35532 16.5851 9.76143 16.5047 10.0863 16.4243H10.1675C8.29949 15.9421 7.56854 14.3348 7.64976 13.2096C7.89342 13.29 8.05584 13.4507 8.2995 13.4507C8.54315 13.5311 8.7868 13.5311 9.03046 13.5311C8.29949 13.0489 7.89342 12.4059 7.64976 11.5219C7.48732 10.7182 7.56854 9.91449 7.97463 9.19117C8.05585 9.19117 8.05585 9.27154 8.05585 9.27154C9.43656 10.8789 11.1421 11.9237 13.1726 12.3255C13.6599 12.4059 14.066 12.4863 14.5533 12.4863C14.6345 12.4863 14.6345 12.4863 14.6345 12.3255C14.4721 11.12 14.797 10.0752 15.6904 9.27154C16.4213 8.62859 17.3147 8.38748 18.3706 8.54822C19.1015 8.62859 19.6701 8.95006 20.1574 9.43227C20.2386 9.51264 20.2386 9.51265 20.401 9.51265C21.0508 9.35191 21.6193 9.19117 22.1878 8.8697C22.1878 8.8697 22.269 8.78933 22.3502 8.78933C22.1066 9.51265 21.6193 10.0752 20.9695 10.5574C21.2132 10.5574 21.3756 10.4771 21.6193 10.4771C21.7817 10.3967 22.0254 10.3967 22.1878 10.3163C22.6751 10.3163 22.8376 10.236 23 10.236Z" fill="white"/>
</svg>
