<svg width="8" height="14" viewBox="0 0 8 14" fill="none" xmlns="http://www.w3.org/2000/svg">
<path d="M2.37636 13.9887C2.37636 13.9324 2.36392 13.876 2.36392 13.8084C2.36392 11.8026 2.36392 9.80796 2.36392 7.80209C2.36392 7.74574 2.36392 7.6894 2.36392 7.61052C1.56765 7.61052 0.783826 7.61052 0 7.61052C0 6.77661 0 5.95398 0 5.12008C0.783826 5.12008 1.56765 5.12008 2.36392 5.12008C2.36392 5.05247 2.36392 4.99612 2.36392 4.93978C2.36392 4.28618 2.35148 3.63258 2.37636 2.99025C2.41369 2.20143 2.66252 1.49148 3.2846 0.905499C3.74495 0.46601 4.3297 0.218094 4.97667 0.0828668C5.51166 -0.0185537 6.04666 -0.00728472 6.58165 0.0152531C7.01711 0.0265221 7.45257 0.0603289 7.88802 0.0941357C7.92535 0.0941357 7.95023 0.105405 8 0.116674C8 0.849154 8 1.58163 8 2.33665C7.95023 2.33665 7.90047 2.33665 7.83826 2.33665C7.30327 2.34792 6.76827 2.33665 6.22084 2.35919C5.58631 2.393 5.22551 2.70853 5.20062 3.28324C5.17574 3.8805 5.18818 4.48902 5.18818 5.08627C5.18818 5.09754 5.20062 5.09754 5.20062 5.13135C6.08398 5.13135 6.97978 5.13135 7.88802 5.13135C7.76361 5.96525 7.65163 6.78788 7.53966 7.62178C6.75583 7.62178 5.98445 7.62178 5.18818 7.62178C5.18818 7.67813 5.17574 7.71194 5.17574 7.75701C5.17574 9.80796 5.17574 11.8589 5.17574 13.9098C5.17574 13.9437 5.17574 13.9775 5.18818 14C4.2675 13.9887 3.32193 13.9887 2.37636 13.9887Z" fill="#1C1F37"/>
</svg>
