<svg width="14" height="14" viewBox="0 0 14 14" fill="none" xmlns="http://www.w3.org/2000/svg">
<path d="M7.78711 5.5654C7.96211 5.39149 8.13714 5.21757 8.31214 5.04366C8.83714 4.60887 9.44962 4.43495 10.1496 4.43495C10.7621 4.34799 11.3746 4.43497 11.8996 4.69584C12.9496 5.04366 13.4746 5.82627 13.7371 6.86975C13.9121 7.39149 13.9121 8.00019 13.9996 8.52193C13.9996 10.1741 13.9996 11.8263 13.9996 13.4785C13.9996 13.8263 13.8246 14.0002 13.4746 14.0002C12.7746 14.0002 12.1621 14.0002 11.4621 14.0002C11.0246 14.0002 10.8496 13.8263 10.8496 13.3915C10.8496 12.0872 10.8496 10.6958 10.8496 9.39149C10.8496 8.86975 10.8496 8.43496 10.6746 8.00018C10.4996 7.47844 10.1496 7.21757 9.62464 7.13061C9.09964 7.04366 8.57461 7.13062 8.22461 7.65236C7.87461 8.08714 7.69963 8.60889 7.69963 9.13063C7.69963 10.5219 7.69963 12.0002 7.69963 13.3915C7.69963 13.9132 7.52462 14.0002 7.08712 14.0002C6.47462 14.0002 5.86214 14.0002 5.24964 14.0002C4.89964 14.0002 4.72461 13.8263 4.72461 13.4785C4.72461 10.6959 4.72461 7.91323 4.72461 5.13062C4.72461 4.78279 4.89964 4.60887 5.24964 4.60887C5.94964 4.60887 6.56213 4.60887 7.26213 4.60887C7.61213 4.60887 7.78711 4.78279 7.78711 5.13062C7.78711 5.30453 7.78711 5.47845 7.78711 5.5654Z" fill="#1C1F37"/>
<path d="M3.50041 9.30405C3.50041 10.6084 3.50041 11.9997 3.50041 13.3041C3.50041 13.7389 3.3254 13.9128 2.8879 13.9128C2.2754 13.9128 1.66287 13.9128 1.05037 13.9128C0.700369 13.9128 0.525391 13.7389 0.525391 13.391C0.525391 10.6084 0.525391 7.8258 0.525391 5.13014C0.525391 4.78232 0.700369 4.6084 1.05037 4.6084C1.75037 4.6084 2.36291 4.6084 3.06291 4.6084C3.41291 4.6084 3.58789 4.86928 3.58789 5.21711C3.50039 6.52146 3.50041 7.91275 3.50041 9.30405Z" fill="#1C1F37"/>
<path d="M0 1.91303C0 0.869551 0.874957 0 1.92496 0C2.97496 0 3.84997 0.869551 3.84997 1.91303C3.84997 2.95651 2.97496 3.82609 1.92496 3.82609C0.874957 3.91305 0 3.04347 0 1.91303Z" fill="#1C1F37"/>
</svg>
