<svg width="12" height="16" viewBox="0 0 12 16" fill="none" xmlns="http://www.w3.org/2000/svg">
<path d="M4.38714 12.9171C4.09775 14.0717 3.51125 15.2022 2.65852 15.992L2.65466 16L2.56977 15.2423C2.48489 14.4686 2.41158 13.2859 2.60064 12.44C2.77042 11.6783 3.70418 7.58507 3.70418 7.58507C3.70418 7.58507 3.42637 6.99975 3.42637 6.13781C3.42637 4.77474 4.17878 3.76447 5.12412 3.76447C5.9344 3.76447 6.3164 4.38587 6.3164 5.13555C6.3164 5.96943 5.80322 7.22025 5.53698 8.38286C5.30932 9.35705 6.00386 10.1468 6.92605 10.1468C8.59678 10.1468 9.88167 8.31471 9.88167 5.67276C9.88167 3.3315 8.26495 1.69982 5.95756 1.69982C3.2836 1.69982 1.71318 3.78852 1.71318 5.94137C1.71318 6.77524 2.02958 7.67727 2.41543 8.16637C2.49646 8.26259 2.50418 8.3548 2.48103 8.45101C2.40772 8.75971 2.24566 9.41719 2.21865 9.5575C2.18006 9.73791 2.0836 9.78201 1.90611 9.6898C0.733118 9.12453 0 7.33651 0 5.9093C0 2.83037 2.1492 0 6.20836 0C9.46495 0 12 2.41343 12 5.64069C12 9.01228 9.9627 11.7184 7.12669 11.7184C6.17749 11.7184 5.27846 11.2052 4.97363 10.5958C4.97363 10.5958 4.50289 12.46 4.38714 12.9171Z" fill="#1C1F37"/>
</svg>
