<svg width="50" height="50" viewBox="0 0 50 50" fill="none" xmlns="http://www.w3.org/2000/svg">
<path d="M47.0576 0C49.3152 1.04913 50.1975 2.74773 49.9639 5.14575C49.8342 6.54459 49.938 7.96841 49.938 9.39224C49.938 10.2915 49.4968 10.866 48.5886 10.891C47.6545 10.891 47.2133 10.2915 47.2133 9.41721C47.2133 7.79356 47.2133 6.1699 47.1874 4.54624C47.1614 3.0225 46.8501 2.69777 45.2931 2.69777C43.866 2.69777 42.4388 2.77271 41.0116 2.64781C40.311 2.59785 39.4028 2.32308 39.0654 1.84847C38.8059 1.49876 39.3249 0.624484 39.5065 0C42.0495 0 44.5665 0 47.0576 0Z" fill="#0B98D3"/>
<path d="M10.4693 0C10.651 0.624484 11.1441 1.49876 10.9105 1.84847C10.5732 2.32308 9.66498 2.59785 8.96436 2.64781C7.45932 2.77271 5.95425 2.69777 4.44922 2.67279C3.30747 2.64781 2.78852 3.19736 2.78852 4.24649C2.78852 5.87015 2.78852 7.4938 2.78852 9.09248C2.78852 10.0417 2.50308 10.7911 1.36133 10.7411C0.297431 10.6912 0.0638912 9.96676 0.0638912 9.09248C0.08984 7.81853 0.167661 6.51961 0.037917 5.24566C-0.195623 2.84765 0.634728 1.04913 2.94418 0C5.46121 0 7.97825 0 10.4693 0Z" fill="#0B98D3"/>
<path d="M40.6223 23.9801C42.9837 23.9801 45.2412 23.9052 47.4728 24.0301C48.0696 24.0551 48.9 24.5047 49.1335 25.0043C49.6006 25.9036 48.7703 26.6779 47.4209 26.6779C44.1773 26.7029 40.9337 26.6779 37.6901 26.6779C37.3528 26.6779 37.0154 26.7029 36.6781 26.7279C36.6262 26.8278 36.5743 26.9527 36.4964 27.0526C37.3268 27.4772 38.1053 28.0268 38.9616 28.3265C39.8438 28.6513 40.4926 29.0759 40.2071 30.0252C39.9217 31.0743 39.0135 31.1492 38.1052 30.8994C36.3926 30.3998 34.8098 29.5755 34.0054 28.0518C33.1231 26.3532 31.7997 26.578 30.2168 26.7529C31.4105 29.8503 33.5901 31.7987 36.6781 32.8978C36.8857 32.9727 37.0933 33.0227 37.3009 33.0726C38.3129 33.2974 39.247 33.6971 38.8578 34.8961C38.4686 36.0702 37.4047 35.8953 36.4705 35.6205C32.2409 34.3965 29.2567 31.7987 27.6479 27.827C27.5182 27.4773 27.3884 27.1275 27.2327 26.7279C26.5061 26.7279 25.8055 26.7279 24.9492 26.7279C26.8175 31.9735 29.7497 36.1201 35.3287 38.0435C35.4585 38.0935 35.5623 38.1434 35.6921 38.1684C36.5224 38.4432 37.0673 38.9678 36.7819 39.867C36.4965 40.8162 35.718 40.9911 34.8098 40.7163C31.2548 39.6672 28.3744 37.6688 26.1688 34.8462C25.1049 33.4973 24.2486 31.9985 23.2106 30.4498C21.1347 32.0485 18.6696 32.9227 16.0228 33.3224C15.0368 33.4723 14.0507 33.5972 13.0646 33.6721C11.7153 33.772 10.9368 33.2725 10.9887 32.3732C11.0406 31.2242 11.9229 31.0993 12.883 30.9494C15.0108 30.6246 17.1386 30.25 19.1886 29.6754C20.6417 29.2758 21.8613 28.3515 22.5359 26.7778C21.1866 26.6529 19.993 26.5031 18.7993 27.2774C16.6975 28.6513 14.2842 29.1009 11.7672 29.026C10.0286 28.976 9.66531 28.5264 10.0805 26.6779C7.7451 26.6779 5.40973 26.6779 3.10028 26.6779C2.65915 26.6779 2.11425 26.8028 1.82881 26.603C1.36173 26.2782 0.764908 25.7037 0.790857 25.2791C0.816806 24.8544 1.4655 24.3798 1.93258 24.0301C2.16612 23.8802 2.60723 23.9801 2.94456 23.9801C7.66725 23.9801 12.364 23.9801 17.0867 23.9801C19.3183 23.9801 20.4341 22.956 20.5379 20.7828C20.5898 19.9585 20.5379 19.1092 20.5639 18.2849C20.6677 15.7619 22.5879 13.9384 25.1049 13.9384C27.6219 13.9384 29.5422 15.7869 29.5941 18.3098C29.62 20.1833 29.5941 22.0318 29.5941 23.9552C30.4504 23.9552 31.177 23.9552 31.9295 23.9552C31.9295 21.2324 32.0073 18.5346 31.8775 15.8619C31.8516 15.1375 31.4624 14.2632 30.9434 13.7386C28.9453 11.6903 26.3245 11.3156 23.6518 11.8402C21.1866 12.3148 19.8114 14.0384 19.2145 16.3864C18.8253 17.8602 18.3323 19.334 17.6576 20.7328C16.8532 22.4314 15.3741 23.2807 13.402 23.2807C12.4159 23.2807 11.378 23.4056 10.4438 23.2058C9.92484 23.1059 9.27608 22.4814 9.17228 21.9818C8.96469 21.1825 9.58746 20.6829 10.4697 20.6579C11.3779 20.6329 12.2861 20.6329 13.1944 20.6579C14.2064 20.6579 14.9589 20.2582 15.3481 19.334C15.7633 18.2849 16.2044 17.2357 16.438 16.1366C17.917 9.24233 24.7157 7.44382 30.4763 10.0666C33.3566 11.3656 34.8098 13.6137 34.706 16.7611C34.6281 18.5846 34.654 20.4331 34.7319 22.2566C34.8097 23.9552 34.8617 23.9552 36.6003 23.9302C36.9116 23.9302 37.1971 23.9302 37.6382 23.9302C37.5604 19.5338 37.5863 15.1874 35.0174 11.3906C30.9953 5.44547 19.7854 3.4721 15.0108 12.09C14.1026 13.7386 13.6355 15.662 13.0387 17.4605C12.7792 18.2349 12.364 18.7595 11.4818 18.6595C10.5995 18.5596 10.2622 17.9601 10.3141 17.1358C10.5736 11.1408 15.945 5.02082 21.9132 3.92173C30.3725 2.37301 38.1312 7.4688 39.6881 15.687C40.0774 17.6853 40.1033 19.7337 40.3109 21.757C40.4406 22.5064 40.5445 23.2058 40.6223 23.9801ZM26.8175 23.9302C26.8434 23.5805 26.8694 23.3307 26.8694 23.0809C26.8694 21.5571 26.8954 20.0084 26.8694 18.4847C26.8435 17.4106 26.091 16.7112 25.1049 16.7361C24.1189 16.7611 23.4961 17.4605 23.3923 18.5596C23.2366 20.3332 23.0549 22.1317 22.8733 23.9302C23.9631 23.9302 25.3125 23.9302 26.8175 23.9302Z" fill="#0B98D3"/>
<path d="M21.4204 37.6938C18.9812 38.1434 16.7756 38.5931 14.544 38.9428C13.7136 39.0677 13.1168 38.618 13.0389 37.7687C12.9611 36.8945 13.4801 36.4698 14.3104 36.3449C14.6477 36.295 15.011 36.295 15.3484 36.245C16.3085 36.0701 17.3205 35.9702 18.2546 35.6705C19.0071 35.4207 19.7337 34.996 20.3565 34.5214C21.4464 33.7221 22.147 33.772 22.8735 34.9211C25.2608 38.693 28.6342 41.2658 33.0196 42.5648C33.9018 42.8395 34.5506 43.3142 34.2651 44.2634C33.9537 45.2875 33.1234 45.3874 32.1892 45.1127C28.0633 43.8887 24.664 41.6655 21.9913 38.3932C21.7318 38.0685 21.4723 37.7438 21.4204 37.6938Z" fill="#0B98D3"/>
<path d="M0.0640601 43.3891C0.0640601 42.4399 0.0640601 41.4907 0.0640601 40.5165C0.0640601 39.6173 0.531152 39.0427 1.43936 39.0427C2.37352 39.0427 2.78869 39.6672 2.78869 40.5415C2.78869 42.1152 2.78869 43.6889 2.78869 45.2626C2.78869 46.9362 3.10006 47.236 4.78674 47.2609C6.29177 47.2609 7.79678 47.2609 9.30181 47.2609C10.2879 47.2609 11.0923 47.5607 11.0663 48.6098C11.0663 49.659 10.2879 49.9587 9.2759 49.9337C7.56328 49.9087 5.82467 49.9587 4.11204 49.9087C1.72475 49.8588 0.0899836 48.2601 0.0380859 45.962C0.0380859 45.1377 0.0640601 44.2634 0.0640601 43.3891Z" fill="#0B98D3"/>
<path d="M49.9384 43.539C49.9384 44.4133 49.9644 45.2875 49.9384 46.1618C49.8606 48.2601 48.2517 49.8837 46.098 49.9587C44.2037 50.0336 42.3095 49.9837 40.4152 49.9837C39.481 49.9837 38.9102 49.5091 38.9102 48.6348C38.9102 47.7355 39.5589 47.3109 40.4671 47.3109C42.1538 47.2859 43.8404 47.2859 45.5271 47.3109C46.7467 47.3359 47.2657 46.8113 47.2657 45.6622C47.2397 44.0386 47.2657 42.4149 47.2657 40.7913C47.2657 39.892 47.5771 39.1926 48.641 39.2176C49.7049 39.2176 50.0162 39.917 49.9903 40.8162C49.9384 41.6905 49.9384 42.6148 49.9384 43.539Z" fill="#0B98D3"/>
<path d="M20.1222 42.4649C19.1621 42.7147 18.2279 42.9894 17.2678 43.2143C16.3077 43.4641 15.4774 43.2892 15.2438 42.2401C15.0362 41.2909 15.7109 40.8662 16.6191 40.6164C17.8647 40.2917 19.0842 39.892 20.3038 39.4674C21.2121 39.1426 21.8348 39.3425 22.4057 40.0918C23.3398 41.3658 24.3259 42.6397 25.3379 43.8637C25.9088 44.5631 26.0385 45.2126 25.3639 45.8371C24.7411 46.4116 23.9886 46.3367 23.4177 45.7622C22.5614 44.8879 21.7829 43.9636 21.0045 43.0144C20.7709 42.7397 20.745 42.315 20.6152 41.9403C20.4595 42.1401 20.3039 42.29 20.1222 42.4649Z" fill="#0B98D3"/>
</svg>
