<svg width="50" height="50" viewBox="0 0 50 50" fill="none" xmlns="http://www.w3.org/2000/svg">
<path d="M18.7146 22.0702C17.7748 20.3825 16.9692 18.858 16.0563 17.4153C15.8147 17.0069 15.1971 16.6803 14.7138 16.6258C13.5055 16.5169 12.2972 16.5986 11.0889 16.5986C9.37051 16.5714 8.45764 15.7547 8.45764 14.0397C8.43079 10.2287 8.43079 6.41759 8.45764 2.60651C8.48449 0.89152 9.37055 0.0204165 11.0621 0.0204165C17.372 -0.0068055 23.6819 -0.0068055 29.9918 0.0204165C31.764 0.0204165 32.5963 0.891519 32.5963 2.71539C32.6232 6.44481 32.6232 10.147 32.5963 13.8764C32.5963 15.7547 31.764 16.5986 29.8576 16.5986C27.2262 16.6258 24.568 16.5714 21.9366 16.6531C21.507 16.6531 20.9163 17.0886 20.7015 17.4969C20.0302 18.858 19.4664 20.3552 18.7146 22.0702ZM26.9577 4.7026C22.8227 4.7026 18.7414 4.7026 14.687 4.7026C14.687 5.46482 14.687 6.14536 14.687 6.88036C18.7951 6.88036 22.8227 6.88036 26.9577 6.88036C26.9577 6.14536 26.9577 5.49204 26.9577 4.7026ZM23.0912 9.22145C20.433 9.22145 17.8553 9.22145 15.2508 9.22145C15.2508 10.0109 15.2508 10.6642 15.2508 11.3448C17.909 11.3448 20.5136 11.3448 23.0912 11.3448C23.0912 10.5825 23.0912 9.902 23.0912 9.22145Z" fill="#7B1FA2"/>
<path d="M37.6443 50C29.0252 50 20.5404 50 11.7334 50C11.8677 47.3595 11.6797 44.6917 12.2435 42.1873C12.9685 38.9206 15.3314 36.9607 18.6609 36.4434C19.1979 36.3618 19.896 36.5523 20.3256 36.879C23.2255 39.1384 26.2864 39.1384 29.1594 36.879C29.589 36.5523 30.2871 36.3618 30.8242 36.4162C34.3684 36.8518 37.3489 39.9551 37.5906 43.6028C37.7785 45.6989 37.6443 47.795 37.6443 50Z" fill="#7B1FA2"/>
<path d="M41.9672 24.6019C41.4301 23.4858 40.9469 22.533 40.5172 21.553C40.2219 20.8452 39.8191 20.5458 39.0136 20.5458C34.9591 20.4914 34.7444 20.2464 34.7444 16.1086C34.7444 15.0197 34.7175 13.9309 34.7444 12.842C34.7981 11.1814 35.6036 10.2831 37.2146 10.2831C40.6515 10.2559 44.0884 10.2559 47.5253 10.2831C49.0826 10.3103 49.9418 11.1542 49.9687 12.7059C50.0224 14.4753 49.9955 16.2447 49.9687 18.0142C49.9418 19.6475 49.0557 20.7364 47.4715 20.5186C44.9476 20.1647 43.5782 21.308 42.6922 23.4858C42.5848 23.8124 42.2894 24.1119 41.9672 24.6019Z" fill="#7B1FA2"/>
<path d="M31.5227 27.8685C31.5227 31.6524 28.5422 34.7013 24.81 34.7557C21.1046 34.7829 18.0436 31.7341 18.0168 27.9774C17.9899 24.0847 20.9972 21.0086 24.7831 21.0358C28.4885 21.0086 31.4958 24.0847 31.5227 27.8685Z" fill="#7B1FA2"/>
<path d="M4.5918 30.1279C4.5918 26.9157 7.03522 24.4385 10.1767 24.4385C13.3451 24.4385 15.9228 27.0246 15.8691 30.2096C15.8154 33.3129 13.2377 35.899 10.1767 35.8718C7.08892 35.8445 4.5918 33.2857 4.5918 30.1279Z" fill="#7B1FA2"/>
<path d="M39.3093 24.4385C42.4508 24.4385 44.921 26.943 44.921 30.1007C44.921 33.2585 42.4508 35.8173 39.3361 35.8718C36.1946 35.899 33.6169 33.2857 33.6438 30.0735C33.6706 26.943 36.1677 24.4385 39.3093 24.4385Z" fill="#7B1FA2"/>
<path d="M10.2301 39.574C10.2301 42.0512 10.2301 44.8006 10.2301 47.6589C6.90057 47.6589 3.59799 47.6589 0 47.6589C0.107403 45.6717 -0.0269031 43.6301 0.349006 41.6701C0.886019 38.8934 3.65163 37.124 6.3904 37.4779C6.68576 37.5051 6.95429 37.6957 7.22279 37.8318C8.18942 38.3762 9.12918 38.9206 10.2301 39.574Z" fill="#7B1FA2"/>
<path d="M49.4317 47.7134C45.968 47.7134 42.6654 47.7134 39.3359 47.7134C39.3359 44.8823 39.3359 42.1329 39.3359 39.574C40.4368 38.9207 41.3766 38.1312 42.4774 37.7773C43.3367 37.4779 44.4107 37.5051 45.3236 37.7229C47.6327 38.2673 49.2706 40.3634 49.4317 42.8406C49.5123 44.3923 49.4317 45.9984 49.4317 47.7134Z" fill="#7B1FA2"/>
</svg>
