<svg width="52" height="50" viewBox="0 0 52 50" fill="none" xmlns="http://www.w3.org/2000/svg">
<path d="M51.8355 15.4166C51.8767 16.3597 51.9178 17.0456 51.959 17.7743C51.959 27.7196 51.9178 37.622 52.0001 47.5672C52.0001 49.4534 51.4653 50.0964 49.6551 49.9678C47.557 49.8392 45.4178 49.8821 43.2785 49.9678C42.0444 50.0107 41.5918 49.5392 41.5918 48.2103C41.6329 37.8363 41.5919 27.5053 41.6742 17.1313C41.6742 16.5741 42.3324 15.5024 42.7026 15.5024C45.6647 15.3309 48.6678 15.4166 51.8355 15.4166Z" fill="#FD5E65"/>
<path d="M13.8637 34.9214C13.8637 30.8061 13.9871 26.648 13.8225 22.5327C13.7402 20.3036 14.4808 19.6606 16.5377 19.832C18.5124 20.0035 20.4871 19.9178 22.5029 19.832C23.7371 19.7892 24.2308 20.3464 24.2308 21.5896C24.2308 30.4203 24.1896 39.2939 24.2308 48.1246C24.2308 49.5392 23.6548 49.9679 22.3795 49.925C20.2403 49.8393 18.1422 49.7964 16.0029 49.925C14.3985 50.0107 13.8226 49.4535 13.8637 47.7388C13.946 43.4949 13.8637 39.2081 13.8637 34.9214Z" fill="#FD5E65"/>
<path d="M27.7282 36.4217C27.7282 32.6922 27.7694 29.0056 27.6871 25.2761C27.6459 23.5614 28.0984 22.7898 29.8674 22.8756C31.9655 23.0042 34.1047 22.9613 36.244 22.8756C37.3959 22.8327 38.0542 23.2185 38.0542 24.5474C38.013 32.4779 38.0542 40.4084 38.0542 48.296C38.0542 49.4963 37.5194 49.9249 36.4086 49.8821C34.1459 49.8392 31.8833 49.7963 29.6206 49.8821C28.1807 49.9249 27.6871 49.4105 27.6871 47.9102C27.7694 44.1378 27.7282 40.2798 27.7282 36.4217Z" fill="#FD5E65"/>
<path d="M36.2847 8.98652C37.6834 8.21491 38.9176 7.44329 40.1929 6.80028C41.6739 6.02867 42.9081 5.38565 42.9492 3.15654C42.9903 0.927435 45.7467 -0.487193 48.0093 0.15582C50.1486 0.755965 51.3827 3.37088 50.6422 5.64286C49.9429 7.8291 47.1865 9.32946 45.2941 8.04343C43.6485 6.92888 42.5789 7.44329 41.3036 8.30064C40.6043 8.77218 39.8637 9.15799 39.1232 9.50093C37.8068 10.1011 36.984 10.8298 36.8606 12.5445C36.696 14.6022 35.1739 15.8025 33.1992 15.9311C31.3068 16.0597 29.908 15.1166 29.1675 13.2733C28.1802 10.8298 23.7783 9.75814 21.8447 11.5157C20.1992 13.0161 18.5125 13.0161 15.9207 11.3871C13.9872 12.5874 11.9713 13.7877 10.0378 15.1166C9.58524 15.4166 9.29727 16.2311 9.21499 16.7884C9.00929 19.0604 7.98085 20.6893 6.17072 21.0752C4.31945 21.461 2.75614 20.9037 1.72766 19.2319C0.781457 17.6886 0.987193 15.4166 2.18023 14.0878C3.41441 12.716 5.30678 12.4159 7.28146 13.4019C7.44602 13.4876 7.6106 13.6591 7.81629 13.7448C8.96819 14.1306 14.8511 9.97247 14.9745 8.72932C15.1802 6.07153 16.291 4.69977 18.3891 4.35683C20.4872 4.0139 22.0093 5.04271 23.0378 7.31469C23.2847 7.91483 23.9017 8.47211 24.5188 8.68645C25.753 9.11512 27.0284 9.37233 28.3037 9.58667C28.7562 9.6724 29.3733 9.50093 29.7024 9.20086C32.1296 7.01462 33.3226 6.97175 36.2847 8.98652Z" fill="#FD5E65"/>
<path d="M0 28.2769C3.20886 28.2769 6.21199 28.2341 9.21516 28.3627C9.58541 28.3627 10.2848 29.2629 10.2848 29.7773C10.3671 35.9931 10.3671 42.2089 10.2848 48.4247C10.2848 48.9391 9.42083 49.8393 8.88602 49.8822C6.41767 50.0536 3.94931 50.0108 1.48095 49.925C0.987282 49.8822 0.0822585 49.282 0.0822585 48.8962C-2.00888e-05 42.0803 0 35.3072 0 28.2769Z" fill="#FD5E65"/>
</svg>
