<svg width="58" height="50" viewBox="0 0 58 50" fill="none" xmlns="http://www.w3.org/2000/svg">
<path d="M7.66115 9.54297C10.4142 12.3736 13.0863 15.1043 15.7099 17.8183C9.87982 25.8106 9.86362 33.8196 15.7261 41.9285C15.6613 42.0117 15.5317 42.1616 15.386 42.3114C13.0054 44.7757 10.6086 47.2234 8.22796 49.7043C7.83929 50.1039 7.64497 50.1039 7.28869 49.671C2.96474 44.5593 0.470779 38.6483 0.065915 31.8715C-0.452311 23.4629 2.09024 16.1033 7.51542 9.79273C7.5802 9.72613 7.61257 9.62622 7.66115 9.54297Z" fill="#303F9F"/>
<path d="M42.3665 41.7787C48.0994 33.8529 48.0994 25.844 42.3018 17.8517C44.9253 15.1543 47.5812 12.4236 50.2209 9.69287C60.5045 20.5491 60.6502 38.9147 50.3181 49.9708C47.6784 47.2401 45.0063 44.4927 42.3665 41.7787Z" fill="#303F9F"/>
<path d="M48.6474 8.0278C45.9753 10.7752 43.3194 13.5059 40.6311 16.2699C40.453 16.12 40.2424 15.9036 40.0157 15.7537C38.6878 14.9212 37.376 14.072 36.0319 13.2728C35.6756 13.0563 35.4489 12.8565 35.2869 12.4569C34.2019 9.64291 32.8253 6.99546 31.1573 4.49786C29.9913 2.74955 28.0317 2.7329 26.8657 4.49786C25.1815 7.01211 23.8049 9.67621 22.6875 12.5068C22.5742 12.7899 22.2827 13.0396 22.0235 13.2228C20.6308 14.1386 19.2057 15.0044 17.813 15.9035C17.651 16.0035 17.5052 16.1533 17.3757 16.2532C14.6874 13.4892 12.0315 10.7419 9.35938 8.01115C18.7198 -1.72948 36.7444 -3.5777 48.6474 8.0278Z" fill="#303F9F"/>
<path d="M28.9251 41.5621C22.674 41.5455 17.5889 36.2672 17.5889 29.7901C17.5889 23.4129 22.7711 18.1014 28.9737 18.118C35.2734 18.1347 40.407 23.3963 40.3908 29.8068C40.3908 36.3338 35.2895 41.5621 28.9251 41.5621ZM24.3096 31.9547C26.3339 31.9547 27.9372 30.3229 27.9372 28.2416C27.9372 26.1769 26.3339 24.4952 24.342 24.4952C22.3339 24.4952 20.7306 26.1436 20.7144 28.2083C20.7144 30.3063 22.3015 31.9547 24.3096 31.9547ZM37.2653 28.225C37.2653 26.1603 35.6296 24.4952 33.6377 24.5119C31.6134 24.5285 30.0263 26.1769 30.0425 28.2583C30.0425 30.3229 31.662 31.9713 33.6701 31.9547C35.6944 31.9547 37.2815 30.3063 37.2653 28.225ZM29.006 37.3162C30.3178 37.3329 31.5324 36.9665 32.6012 36.1174C33.168 35.6678 33.2814 35.0517 32.9089 34.5522C32.5527 34.0693 31.9697 34.0027 31.4028 34.3857C29.7996 35.4846 28.1963 35.4846 26.593 34.4023C26.0262 34.0194 25.4271 34.086 25.087 34.5855C24.7307 35.085 24.8278 35.6678 25.3785 36.1007C26.4311 36.9499 27.6457 37.3329 29.006 37.3162Z" fill="#303F9F"/>
<path d="M34.4951 17.2023C30.819 15.5705 27.1428 15.5872 23.3047 17.2855C23.8229 15.7537 24.244 14.3717 24.746 13.023C25.7015 10.4255 26.997 8.01114 28.5517 5.73C28.908 5.21383 29.0861 5.18053 29.41 5.66339C31.7906 9.16003 33.5073 12.9564 34.5599 17.0857C34.5437 17.1024 34.5275 17.119 34.4951 17.2023Z" fill="#303F9F"/>
<path d="M24.3418 26.6598C25.2001 26.6598 25.8641 27.3425 25.8641 28.2416C25.8641 29.1574 25.1677 29.8567 24.2932 29.8234C23.4511 29.8068 22.7871 29.0908 22.7871 28.2083C22.8033 27.3425 23.4835 26.6598 24.3418 26.6598Z" fill="#303F9F"/>
<path d="M33.6853 26.6598C34.5436 26.6764 35.2076 27.3758 35.2076 28.2582C35.2076 29.1574 34.495 29.8567 33.6205 29.8401C32.7784 29.8068 32.1306 29.1074 32.1468 28.2083C32.1306 27.3258 32.8108 26.6431 33.6853 26.6598Z" fill="#303F9F"/>
</svg>
