<svg width="52" height="50" viewBox="0 0 52 50" fill="none" xmlns="http://www.w3.org/2000/svg">
<path d="M0.166992 47.7741C0.809955 47.7053 1.43002 47.5908 2.07299 47.5908C4.32336 47.5678 6.5737 47.6137 8.82407 47.5678C9.78852 47.5449 9.97222 48.0032 9.97222 48.8282C9.97222 49.6302 9.74253 50.0197 8.86993 49.9968C6.32104 49.9739 3.74921 49.9968 1.20033 49.9739C0.855881 49.9739 0.511437 49.7447 0.166992 49.6073C0.166992 48.9886 0.166992 48.3928 0.166992 47.7741Z" fill="#7B1FA2"/>
<path d="M51.834 49.6073C51.4436 49.7448 51.0762 49.974 50.6858 49.974C48.2058 49.9969 45.7258 49.974 43.2458 49.9969C42.3732 50.0198 42.0288 49.7448 42.0059 48.8282C42.0059 47.8887 42.3273 47.545 43.2688 47.5679C45.7029 47.6137 48.1599 47.5679 50.594 47.5908C51.0073 47.5908 51.4206 47.7054 51.811 47.7741C51.8339 48.3928 51.834 48.9886 51.834 49.6073Z" fill="#7B1FA2"/>
<path d="M35.2312 11.8437C37.3668 12.6686 37.6193 13.0582 37.6193 15.3497C37.6193 19.1993 37.6193 23.049 37.6193 26.9216C37.6193 28.9152 36.8386 29.7172 34.8638 29.7172C29.0542 29.7172 23.2446 29.7172 17.4349 29.7172C15.5979 29.7172 14.7482 28.9152 14.7252 27.082C14.7023 22.9115 14.7023 18.764 14.7252 14.5935C14.7252 12.8978 15.6667 12.027 17.389 12.027C21.9815 12.027 26.5741 12.027 31.4882 12.027C31.3045 10.3084 31.3275 8.6127 30.8912 7.0545C30.2942 4.94633 27.9289 3.61727 25.8623 3.86933C23.4971 4.16723 21.6371 5.93167 21.2697 8.17732C21.1778 8.77311 20.9712 9.73553 20.6268 9.82719C19.7312 10.0563 18.7438 9.96467 17.8024 9.82719C17.5957 9.80427 17.3431 9.09391 17.3431 8.70436C17.2512 3.89225 21.752 -0.324073 26.6201 0.0196491C31.5342 0.340457 35.0245 4.07557 35.2082 9.16266C35.2771 10.0563 35.2312 10.9729 35.2312 11.8437ZM24.0252 19.9326C24.0941 20.093 24.0941 20.643 24.3697 20.8492C25.3112 21.6054 25.1505 22.5907 25.1505 23.5761C25.1505 23.9885 25.0127 24.4927 25.1964 24.8135C25.426 25.2489 25.8853 25.8676 26.2297 25.8676C26.6201 25.8676 27.1023 25.2947 27.3549 24.8593C27.5386 24.5385 27.4238 24.0344 27.4238 23.6219C27.4238 22.6137 27.309 21.6512 28.1815 20.7576C28.8245 20.093 28.6179 19.0848 28.0209 18.3286C27.3779 17.5036 26.5053 17.2745 25.5638 17.5953C24.5993 17.9161 24.0482 18.6494 24.0252 19.9326Z" fill="#7B1FA2"/>
<path d="M34.4507 40.5101C35.0478 40.8767 35.53 41.0601 35.8974 41.4038C36.1959 41.7017 36.6321 42.2287 36.5403 42.5037C36.3106 43.1911 35.7366 42.9849 35.2315 42.6641C34.7952 42.3891 34.3359 42.16 33.7159 41.8163C33.7159 42.5954 33.8077 43.1911 33.6929 43.7869C33.624 44.1077 33.2336 44.3369 32.981 44.6119C32.7514 44.314 32.407 44.0619 32.3381 43.7411C32.2233 43.1911 32.3151 42.5954 32.3151 41.8392C31.764 42.1371 31.3048 42.3433 30.8685 42.5954C30.4092 42.8703 29.904 43.2599 29.4907 42.5954C29.0774 41.9308 29.6056 41.6559 30.0878 41.3809C30.5241 41.1288 30.9373 40.8767 31.5114 40.533C30.8914 40.1664 30.3174 39.8914 29.8581 39.4789C29.6056 39.2498 29.5596 38.7915 29.4447 38.4478C29.8122 38.379 30.2256 38.1957 30.547 38.2874C31.0981 38.4707 31.6033 38.8373 32.3151 39.2269C32.3151 38.402 32.2462 37.7603 32.3381 37.1416C32.384 36.8896 32.7285 36.6604 32.9352 36.4313C33.1878 36.6604 33.624 36.8667 33.6699 37.1187C33.7847 37.7374 33.7159 38.379 33.7159 39.204C34.3818 38.8373 34.887 38.4707 35.4381 38.3103C35.7596 38.2186 36.1729 38.4019 36.5403 38.4707C36.4255 38.8144 36.4026 39.2727 36.15 39.5019C35.6907 39.8456 35.1167 40.0976 34.4507 40.5101Z" fill="#7B1FA2"/>
<path d="M19.731 39.204C20.4429 38.8144 20.925 38.4707 21.4991 38.2874C21.8206 38.1957 22.234 38.379 22.6014 38.4478C22.4636 38.7915 22.4406 39.2498 22.188 39.4789C21.7517 39.8685 21.1777 40.1206 20.5347 40.533C21.1777 40.9226 21.7517 41.1746 22.211 41.5871C22.4406 41.7933 22.4636 42.2516 22.5784 42.6183C22.211 42.6641 21.7976 42.8703 21.4991 42.7558C20.948 42.5725 20.4429 42.1829 19.754 41.7933C19.754 42.2975 19.7999 42.6183 19.754 42.9391C19.6392 43.5349 20.1902 44.5431 19.088 44.566C18.0087 44.589 18.4451 43.5807 18.3532 42.9849C18.3073 42.6641 18.3532 42.3204 18.3532 41.8163C17.7103 42.1829 17.2281 42.435 16.7458 42.7329C16.2407 43.0537 15.7354 43.1224 15.5287 42.5266C15.4369 42.2516 15.7814 41.7475 16.0569 41.4955C16.4473 41.1517 16.9524 40.9226 17.5954 40.5559C16.9524 40.1664 16.3554 39.9143 15.8962 39.5248C15.6436 39.3185 15.6436 38.8603 15.5059 38.5165C15.8733 38.4478 16.2866 38.2645 16.608 38.3561C17.1591 38.5394 17.6643 38.8832 18.3303 39.2498C18.3303 38.4707 18.2384 37.852 18.3532 37.2791C18.4221 36.9812 18.8354 36.7292 19.088 36.4771C19.2947 36.7521 19.6391 37.0041 19.708 37.302C19.7999 37.8062 19.731 38.402 19.731 39.204Z" fill="#7B1FA2"/>
<path d="M6.55091 40.533C7.17091 40.8997 7.69897 41.083 8.06638 41.4496C8.34194 41.7246 8.41089 42.2287 8.5946 42.6412C8.20423 42.6641 7.76788 42.8016 7.40048 42.687C6.89529 42.5266 6.45897 42.1829 5.77008 41.7933C5.77008 42.5724 5.83906 43.1911 5.74721 43.7869C5.70128 44.0848 5.35682 44.3369 5.15015 44.6119C4.8746 44.3598 4.4612 44.1306 4.39231 43.8328C4.27749 43.2599 4.34645 42.6183 4.34645 41.8392C3.65756 42.2287 3.12943 42.5954 2.5324 42.8016C2.25684 42.8932 1.88937 42.687 1.54492 42.6183C1.61381 42.2746 1.59087 41.8163 1.79754 41.6329C2.27976 41.2205 2.87675 40.9455 3.5886 40.533C3.01453 40.1893 2.4405 39.9372 2.02717 39.5477C1.75161 39.2956 1.70566 38.8373 1.54492 38.4707C1.93529 38.4249 2.37163 38.2645 2.73904 38.379C3.22126 38.5165 3.65756 38.8602 4.34645 39.2269C4.34645 38.5165 4.25462 37.9666 4.36943 37.4395C4.46129 37.0729 4.80573 36.775 5.05832 36.4313C5.28795 36.7521 5.67832 37.05 5.74721 37.3937C5.86203 37.9207 5.77008 38.4936 5.77008 39.204C6.27527 38.9519 6.55087 38.7915 6.84939 38.654C7.42346 38.402 8.08941 37.577 8.5946 38.4936C9.07682 39.3873 8.02048 39.5248 7.51529 39.9143C7.2627 40.1206 6.96425 40.281 6.55091 40.533Z" fill="#7B1FA2"/>
<path d="M48.3887 40.5101C49.0776 40.9226 49.6517 41.1746 50.111 41.5871C50.3406 41.7933 50.3406 42.2745 50.4554 42.6183C50.088 42.6641 49.6747 42.8245 49.3762 42.7099C48.8481 42.5266 48.3887 42.1829 47.6998 41.7933C47.6998 42.412 47.7917 42.8932 47.6769 43.3286C47.562 43.764 47.2865 44.4515 46.988 44.4973C46.2072 44.6348 46.2992 43.9015 46.2762 43.3745C46.2532 42.8932 46.2762 42.412 46.2762 41.7475C45.5414 42.16 45.0132 42.5266 44.4162 42.7558C44.1406 42.8474 43.7732 42.6412 43.4287 42.5724C43.5206 42.2287 43.4747 41.7704 43.7043 41.5871C44.1865 41.1746 44.7836 40.8997 45.4725 40.4872C44.8984 40.1206 44.3243 39.8914 43.911 39.5019C43.6354 39.2498 43.5895 38.7915 43.4287 38.4019C43.842 38.3561 44.2784 38.2186 44.6228 38.3332C45.128 38.4707 45.5644 38.8144 46.2762 39.204C46.2762 38.4478 46.2072 37.8291 46.2991 37.2791C46.368 36.9583 46.7125 36.6833 46.9421 36.3854C47.1947 36.6604 47.608 36.9125 47.6769 37.2333C47.7917 37.7832 47.6998 38.3561 47.6998 39.1581C48.228 38.8832 48.5725 38.5853 48.9858 38.4936C49.468 38.379 50.2717 38.2186 50.4324 38.4478C50.9146 39.1123 50.2257 39.4102 49.7435 39.7081C49.3302 39.9601 48.9398 40.1893 48.3887 40.5101Z" fill="#7B1FA2"/>
<path d="M19.0659 49.9968C17.7571 49.9968 16.4711 49.9739 15.1622 49.9968C14.2208 50.0198 14.1519 49.5156 14.1289 48.7594C14.1289 47.9803 14.2666 47.545 15.1851 47.5679C17.757 47.6137 20.3059 47.6137 22.8777 47.5679C23.8421 47.545 23.8881 48.072 23.911 48.8053C23.934 49.5844 23.7504 50.0427 22.8548 49.9968C21.5919 49.951 20.3289 49.9968 19.0659 49.9968Z" fill="#7B1FA2"/>
<path d="M32.9121 47.5679C34.221 47.5679 35.5069 47.6137 36.8158 47.545C37.7113 47.5221 37.9181 47.9345 37.8951 48.7365C37.8721 49.4698 37.8491 49.9969 36.8846 49.9969C34.2898 49.951 31.695 49.9739 29.0772 49.9969C28.0668 50.0198 28.1358 49.3782 28.1358 48.7136C28.1129 47.9804 28.2736 47.545 29.1462 47.5679C30.3862 47.6137 31.6491 47.5679 32.9121 47.5679Z" fill="#7B1FA2"/>
</svg>
