<svg width="74" height="50" viewBox="0 0 74 50" fill="none" xmlns="http://www.w3.org/2000/svg">
<path d="M5.75043 18.9205C5.75043 16.4829 5.71685 14.0453 5.75043 11.6415C5.88474 5.14122 10.6531 0.333715 17.1002 0.0290137C21.3648 -0.17412 25.1928 0.638416 28.1477 4.0917C29.8267 6.08918 30.9012 8.32365 30.9683 10.9644C31.0019 13.6051 30.9683 16.2459 30.9683 18.9543C33.1845 19.1575 35.4343 18.6496 36.4752 20.8164C37.0125 21.8998 37.0462 23.2202 37.3819 24.6759C33.4532 24.6759 29.961 24.6759 26.3345 24.6759C26.3345 28.2985 26.3345 31.7518 26.3345 35.3066C26.9389 35.3405 27.5432 35.3743 28.2484 35.4421C28.2484 37.7781 28.2484 40.0803 28.2484 42.6195C31.2369 42.6195 34.1247 42.6195 37.0125 42.6195C37.0125 44.3122 37.1468 45.768 36.9789 47.19C36.7775 48.8828 35.1992 49.9661 33.1173 49.9661C25.5621 50 18.0068 50 10.4851 50C8.36962 50 6.22057 50 4.10509 50C1.45234 50 0.0755692 48.6796 0.0419902 45.9712C0.00841116 41.1298 0.00837837 36.2884 0.00837837 31.4132C0.00837837 28.8063 -0.0251679 26.2333 0.0419902 23.6264C0.109148 20.1393 1.01585 19.259 4.47449 19.0898C4.81028 19.0559 5.11242 18.9882 5.75043 18.9205ZM25.2263 18.6158C25.2263 15.8058 25.2598 13.165 25.2263 10.5243C25.1591 7.74811 23.2787 5.47978 20.8274 5.14122C15.6898 4.43025 12.8356 5.58134 11.7947 8.79763C11.6939 9.06848 11.5933 9.33932 11.5597 9.61017C11.5597 12.5895 11.5597 15.5349 11.5597 18.6158C16.0929 18.6158 20.5588 18.6158 25.2263 18.6158ZM24.7226 43.432C24.7226 42.9919 24.7562 42.8564 24.7226 42.7549C23.9503 40.4188 23.2115 38.0489 22.372 35.7129C21.9355 34.528 21.8684 33.6138 22.7078 32.4966C24.2189 30.4314 23.7488 27.7568 21.8684 26.0979C20.0551 24.4728 17.3017 24.439 15.4213 25.9963C13.5073 27.5537 12.9028 30.3299 14.3803 32.3612C15.3541 33.7154 15.1526 34.7311 14.6825 36.0515C13.9437 37.9812 13.3394 39.9787 12.7014 41.9762C12.567 42.3825 12.5335 42.7887 12.3992 43.4658C15.0519 43.4658 17.5032 43.4658 19.9545 43.4658C21.4991 43.432 23.0436 43.432 24.7226 43.432Z" fill="#1C1F37"/>
<path d="M44.0981 34.0878C44.0981 35.6452 44.0981 37.0671 44.0981 38.6245C42.4864 38.6245 41.0088 38.6245 39.3299 38.6245C39.3299 37.1348 39.3299 35.679 39.3299 34.054C38.2889 34.054 37.4494 34.054 36.442 34.054C36.442 36.1869 36.442 38.2521 36.442 40.4188C34.3937 40.4188 32.4797 40.4188 30.3978 40.4188C30.3978 38.2859 30.3978 36.2207 30.3978 34.0201C29.6591 33.9185 29.0883 33.8508 28.3496 33.7493C28.3496 31.4809 28.3496 29.2126 28.3496 26.775C31.909 26.775 35.4012 26.775 38.8934 26.775C44.4339 26.7411 49.9744 26.6734 55.4814 26.7073C56.6903 26.7073 57.1939 26.2672 57.8319 25.1838C58.8729 23.3894 60.1824 21.5951 61.7942 20.3424C64.2119 18.4804 67.2676 18.8528 69.7189 20.7487C75.3937 25.1161 75.4274 35.5436 69.8197 40.0126C66.9991 42.247 63.1038 42.1116 60.4846 39.5724C59.5444 38.6583 58.5035 37.5411 58.1677 36.3223C57.5297 34.054 56.0859 33.817 54.1719 33.8847C51.049 33.9863 47.9262 33.9185 44.7697 33.9524C44.6354 33.9524 44.5011 34.0201 44.0981 34.0878ZM70.2226 30.6684C70.2226 27.7907 69.5845 25.9286 68.1742 24.3712C66.4617 22.5092 64.3462 22.5092 62.6337 24.3374C59.7795 27.3844 59.8131 33.4446 62.6673 36.4239C64.447 38.2859 66.6633 38.2182 68.3087 36.1869C69.6854 34.5618 70.3905 32.6659 70.2226 30.6684Z" fill="#1C1F37"/>
</svg>
