<svg width="70" height="50" viewBox="0 0 70 50" fill="none" xmlns="http://www.w3.org/2000/svg">
<path d="M7.24455 30.1539C6.78537 30.1539 6.37715 30.1539 5.91797 30.1539C5.91797 28.3077 5.91797 26.5128 5.91797 24.6154C15.3568 24.6154 24.7956 24.6154 34.2854 24.6154C34.2854 23.1795 34.2854 21.7949 34.2854 20.359C34.7446 20.359 35.1529 20.359 35.6631 20.359C35.6631 21.7436 35.6631 23.1282 35.6631 24.5641C45.2039 24.5641 54.6426 24.5641 64.0814 24.5641C64.0814 26.4616 64.0814 28.2564 64.0814 30.1539C63.6732 30.1539 63.2652 30.1539 62.755 30.1539C62.755 28.7693 62.755 27.4359 62.755 26C53.7244 26 44.7447 26 35.6631 26C35.6631 27.3847 35.6631 28.7693 35.6631 30.1539C35.2039 30.1539 34.7957 30.1539 34.3365 30.1539C34.3365 28.7693 34.3365 27.3846 34.3365 25.9488C34.0814 25.9488 33.8774 25.8975 33.6733 25.8975C25.1019 25.8975 16.5813 25.8975 8.00986 25.8975C7.19353 25.8975 7.19348 25.8975 7.19348 26.718C7.2445 27.8975 7.24455 28.9744 7.24455 30.1539Z" fill="#303F9F"/>
<path d="M28.266 17.8462C28.266 16.1539 28.113 14.5128 28.3171 12.9231C28.5212 10.9744 30.4089 9.43592 32.3476 9.28207C32.6028 9.28207 32.8579 9.33336 33.113 9.43592C34.3885 10.0513 35.664 10 36.9395 9.43592C37.1946 9.33336 37.5516 9.23079 37.8578 9.28207C40.0006 9.58977 41.5824 11.1282 41.7864 13.2821C41.9395 14.7693 41.7864 16.2564 41.7864 17.7949C37.2456 17.8462 32.7558 17.8462 28.266 17.8462Z" fill="#303F9F"/>
<path d="M41.3776 50C37.0918 50 32.8571 50 28.6224 50C28.5714 49.9487 28.5205 49.8975 28.5205 49.8462C28.5205 48.5128 28.4696 47.1795 28.5716 45.8462C28.7247 43.7949 30.2041 42.2564 32.1939 41.9487C32.551 41.8975 32.9082 42 33.2143 42.1026C34.2857 42.5641 35.3572 42.6667 36.3777 42.2051C37.5511 41.5898 38.5716 42.0513 39.49 42.6667C40.5614 43.3846 41.2247 44.4103 41.3267 45.6923C41.4798 47.0769 41.3776 48.5128 41.3776 50Z" fill="#303F9F"/>
<path d="M12.9592 49.9487C8.62242 49.9487 4.38776 49.9487 0 49.9487C0.102041 48.3076 0 46.6153 0.255103 45.0256C0.561226 43.282 2.19373 41.9999 3.92843 41.8461C4.18353 41.8461 4.43864 41.8974 4.69374 41.9999C5.91823 42.564 7.09175 42.564 8.31625 41.9999C8.57135 41.8974 8.92839 41.7948 9.23452 41.8461C11.4794 42.2051 12.9592 43.9487 12.9592 46.2564C12.9592 47.5384 12.9592 48.7179 12.9592 49.9487Z" fill="#303F9F"/>
<path d="M69.9494 50C65.6637 50 61.429 50 56.9902 50C57.0923 48.3077 57.0413 46.6154 57.2964 44.9744C57.6025 43.2821 59.2353 42.0513 60.97 41.8974C61.1741 41.8974 61.4291 41.8974 61.6332 42C62.9087 42.6667 64.1842 42.6667 65.4597 42C65.6638 41.8974 65.9188 41.8462 66.1739 41.8974C68.2147 42.1538 69.8474 43.7436 70.0005 45.8461C70.0005 47.1795 69.9494 48.5641 69.9494 50Z" fill="#303F9F"/>
<path d="M34.9487 8.56411C32.6018 8.56411 30.7139 6.61539 30.7139 4.25641C30.7139 1.89744 32.6526 0 34.9995 0C37.3465 0 39.2344 1.89744 39.2344 4.3077C39.2344 6.66667 37.2957 8.56411 34.9487 8.56411Z" fill="#303F9F"/>
<path d="M10.5101 37.1795C10.5101 39.4359 8.67338 41.2307 6.4795 41.2307C4.28562 41.2307 2.5 39.3846 2.5 37.1795C2.5 34.923 4.33674 33.1282 6.58164 33.1282C8.7245 33.1282 10.5101 34.9743 10.5101 37.1795Z" fill="#303F9F"/>
<path d="M39.0301 37.1795C39.0301 39.3846 37.1934 41.2307 34.9485 41.2307C32.8056 41.2307 30.9688 39.3846 30.9688 37.2307C30.9688 34.9743 32.7544 33.1282 34.9993 33.1282C37.1932 33.1282 39.0301 34.923 39.0301 37.1795Z" fill="#303F9F"/>
<path d="M59.4902 37.1795C59.4902 34.9743 61.2761 33.1282 63.47 33.1282C65.7149 33.1282 67.5516 34.923 67.5516 37.1795C67.5516 39.3846 65.7149 41.2307 63.5211 41.2307C61.2762 41.2307 59.4902 39.3846 59.4902 37.1795Z" fill="#303F9F"/>
</svg>
