<svg width="50" height="50" viewBox="0 0 50 50" fill="none" xmlns="http://www.w3.org/2000/svg">
<path d="M12.5059 49.987C12.8833 47.5263 13.2477 45.0787 13.6251 42.6181C14.2888 38.2958 14.9525 33.9734 15.6292 29.6641C16.2279 25.7974 16.8135 21.9177 17.4122 18.051C17.4252 17.9729 17.4512 17.8948 17.4902 17.7906C22.4876 17.7906 27.4851 17.7906 32.5345 17.7906C32.6907 18.7931 32.8468 19.7956 33.003 20.7981C33.7058 25.3287 34.3955 29.8594 35.0983 34.377C35.801 38.9207 36.5038 43.4644 37.2065 48.0081C37.3107 48.672 37.4017 49.323 37.4928 49.987C29.1639 49.987 20.8349 49.987 12.5059 49.987Z" fill="#FF7502"/>
<path d="M0.012995 43.4514C0.130121 43.0999 0.208199 42.7353 0.364368 42.3968C1.11918 40.7434 2.4076 39.8321 4.22957 39.7279C4.64602 39.7019 5.06246 39.7279 5.49193 39.6889C4.07339 39.2722 2.9802 38.4781 2.35553 37.1111C1.92606 36.1737 1.84799 35.2103 2.10827 34.2078C2.64185 32.1638 4.46381 30.8489 6.62414 30.94C8.65433 31.0181 10.3332 32.5674 10.6975 34.6895C11.075 36.8897 9.86464 38.5952 7.04059 39.7279C7.62622 39.7279 8.08171 39.7019 8.5372 39.7409C8.9016 39.767 9.27902 39.8321 9.6304 39.9362C10.9318 40.3268 10.9969 40.483 10.7886 41.811C10.3722 44.3888 9.98177 46.9796 9.59135 49.5704C9.56532 49.7136 9.57833 49.8568 9.57833 50C6.74126 50 3.91721 50 1.08014 50C0.598621 49.7657 0.234253 49.4141 0 48.9194C0.0130141 47.0967 0.012995 45.2741 0.012995 43.4514Z" fill="#FF7502"/>
<path d="M40.4217 49.987C40.2395 48.7371 40.0833 47.4743 39.8881 46.2244C39.6278 44.4669 39.3545 42.7223 39.0682 40.9777C39.0162 40.6913 39.0812 40.483 39.3545 40.3919C40.0443 40.1575 40.721 39.8971 41.4237 39.7409C41.8532 39.6498 42.3217 39.7279 42.7902 39.6888C41.3326 39.2592 40.2265 38.439 39.6148 37.0329C39.2114 36.1086 39.1463 35.1452 39.4196 34.1687C39.9922 32.1117 41.8272 30.8228 44.0136 30.94C46.0047 31.0441 47.6575 32.6195 47.9958 34.7286C48.3472 36.9027 47.1239 38.6083 44.3389 39.7279C44.9115 39.7279 45.341 39.7149 45.7835 39.7279C48.0869 39.819 49.9349 41.6808 49.987 43.9721C50.013 45.4693 49.987 46.9665 50 48.4637C50 49.2319 49.5445 49.6745 48.9199 49.987C46.0828 49.987 43.2457 49.987 40.4217 49.987Z" fill="#FF7502"/>
<path d="M0.0136719 48.9194C0.248016 49.4011 0.599539 49.7657 1.09427 50C0.72973 50 0.378208 50 0.0136719 50C0.0136719 49.6355 0.0136719 49.271 0.0136719 48.9194Z" fill="white"/>
<path d="M8.35531 17.6084C5.90867 16.5799 4.65932 14.7312 5.03672 12.583C5.41413 10.3958 7.14499 8.88559 9.31833 8.83352C11.3485 8.78144 13.1965 10.2266 13.665 12.2185C14.1986 14.5229 13.0924 16.3456 10.3465 17.5694C10.8931 17.5954 11.3876 17.6084 11.8821 17.6605C12.715 17.7386 13.4568 18.0641 14.0945 18.5979C14.2116 18.689 14.3157 18.8973 14.3027 19.0275C13.8733 21.9438 13.4178 24.847 12.9753 27.7503C12.9623 27.7894 12.9362 27.8414 12.8972 27.9196C12.4287 27.9196 11.9342 27.9196 11.4527 27.9196C9.21424 27.9196 6.96278 27.9196 4.72437 27.9196C3.6442 27.9196 3.05859 27.3467 3.05859 26.2661C3.05859 24.9121 3.05859 23.5712 3.05859 22.2172C3.05859 19.5352 4.85451 17.6865 7.56144 17.5954C7.8087 17.5954 8.08201 17.6084 8.35531 17.6084Z" fill="#FF7502"/>
<path d="M37.0639 27.8935C36.9338 27.0472 36.8037 26.201 36.6735 25.3417C36.3612 23.2847 36.0489 21.2277 35.7105 19.1707C35.6584 18.8582 35.7495 18.689 35.9838 18.5197C36.8427 17.8557 37.8318 17.5953 38.8989 17.5953C39.1332 17.5953 39.3674 17.5953 39.7318 17.5953C36.9208 16.3325 35.8016 14.5098 36.3352 12.2054C36.8037 10.2135 38.6517 8.76838 40.6818 8.82046C42.8682 8.87253 44.5861 10.3828 44.9635 12.583C45.3279 14.7311 44.0915 16.5668 41.6319 17.5953C41.8401 17.5953 42.0613 17.5953 42.2696 17.5953C45.1326 17.6084 46.9546 19.4571 46.9676 22.3083C46.9676 23.6623 46.9676 25.0032 46.9676 26.3572C46.9676 27.2816 46.369 27.9065 45.458 27.9065C42.7641 27.9195 40.0572 27.9065 37.3633 27.9065C37.2722 27.9195 37.1811 27.9065 37.0639 27.8935Z" fill="#FF7502"/>
<path d="M25.7934 8.74237C29.3983 8.26066 31.897 10.8124 31.2853 14.7832C27.1078 14.7832 22.9173 14.7832 18.7267 14.7832C18.1281 11.5545 19.937 8.26066 24.2187 8.72935C23.0214 8.45595 22.0323 7.85707 21.3556 6.82856C20.6658 5.78703 20.4576 4.65436 20.7179 3.43057C21.1474 1.36052 23.0995 -0.110639 25.2598 0.00653341C27.3811 0.110686 29.125 1.76412 29.3723 3.93831C29.5544 5.60476 28.7085 8.02632 25.7934 8.74237Z" fill="#FF7502"/>
</svg>
