<svg width="54" height="50" viewBox="0 0 54 50" fill="none" xmlns="http://www.w3.org/2000/svg">
<path d="M54.0004 21.7098C53.8879 22.1767 53.8176 22.6437 53.677 23.0964C52.6505 26.4922 50.4147 28.6145 46.9837 29.4776C46.7446 29.5342 46.5056 29.7323 46.3509 29.9304C46.1259 30.2134 45.9853 30.5671 45.7744 30.8784C45.0291 32.0103 43.6229 32.4348 42.4418 31.7839C40.5997 30.7652 38.7717 29.704 36.9718 28.6004C35.8328 27.9071 35.425 26.3931 36.1281 25.2471C36.6906 24.3557 36.7187 23.5633 36.5078 22.5446C35.4391 17.6349 38.7014 12.8384 43.5948 11.9753C48.5445 11.0981 53.1707 14.4938 53.8879 19.5167C53.902 19.6158 53.9441 19.7148 53.9863 19.8139C54.0004 20.4364 54.0004 21.0731 54.0004 21.7098ZM50.0069 20.7477C50.0069 18.0311 47.8555 15.8521 45.1697 15.8521C42.4699 15.8521 40.3044 18.0169 40.3044 20.7194C40.3044 23.4219 42.4699 25.6291 45.1557 25.6291C47.8274 25.6432 50.0069 23.4501 50.0069 20.7477Z" fill="#FD5E65"/>
<path d="M34.9184 20.776C35.1012 21.7523 35.284 22.6578 35.4246 23.5634C35.4528 23.7332 35.3965 23.9454 35.2981 24.101C34.4263 25.5018 34.2997 26.9308 35.0872 28.4165C35.1575 28.558 35.059 28.8551 34.9606 29.0249C32.7529 32.8876 30.5593 36.7503 28.3235 40.5846C27.9298 41.2638 27.8455 41.9147 28.0564 42.6645C28.3798 43.7823 28.647 44.9142 28.9563 46.0462C29.3079 47.3054 30.2078 47.8289 31.4874 47.5177C32.4577 47.2771 33.4279 47.0507 34.3981 46.7961C35.7059 46.4706 36.1699 45.8622 36.1699 44.4615C36.9995 44.0511 37.4636 43.4003 37.4214 42.4099C37.4214 42.3108 37.5901 42.1693 37.7026 42.0986C38.2088 41.7873 38.6166 41.3487 38.6026 40.7544C38.5885 40.0753 38.9963 39.8347 39.5306 39.5093C39.5306 40.4007 39.5447 41.2355 39.5306 42.0703C39.5025 43.2164 39.5869 44.3907 39.3619 45.4944C38.8135 48.2676 36.4933 49.9937 33.5263 49.9937C27.7611 50.0079 21.9958 49.9937 16.2306 49.9937C12.7996 49.9937 9.38258 50.0079 5.95156 49.9937C3.23767 49.9796 1.08625 48.4939 0.312865 46.0462C0.116003 45.4378 0.0175753 44.7728 0.0175753 44.1219C-0.0105479 38.2501 0.00351711 32.3782 0.00351711 26.5064C0.00351711 23.1672 2.47835 20.6628 5.79688 20.6487C15.1057 20.6345 24.4285 20.6487 33.7373 20.6487C34.145 20.677 34.5388 20.7477 34.9184 20.776ZM17.2993 39.1131C17.2993 40.1602 17.2711 41.1931 17.3133 42.2401C17.3274 42.6363 17.4118 43.0607 17.5805 43.4144C18.0586 44.4473 19.1976 44.9567 20.3084 44.7303C21.4053 44.5039 22.2349 43.4993 22.2489 42.325C22.263 40.2168 22.263 38.1227 22.2489 36.0145C22.2489 35.6183 22.3474 35.3637 22.6989 35.109C24.3863 33.8497 25.0894 32.1377 24.7238 30.0578C24.316 27.7656 22.4317 26.1102 20.1819 25.9404C17.8617 25.7706 15.7806 27.1289 15.0072 29.322C14.2479 31.4585 15.0213 33.8497 16.9196 35.1656C17.2289 35.3778 17.3133 35.6042 17.2993 35.9438C17.2852 36.9908 17.2993 38.052 17.2993 39.1131Z" fill="#FD5E65"/>
<path d="M13.1083 19.3752C10.6335 19.3752 8.25706 19.3752 5.88066 19.3752C5.85253 19.3328 5.81035 19.3045 5.81035 19.2762C5.83847 16.9416 5.71192 14.5929 5.93691 12.2866C6.44312 6.9241 10.535 2.12759 15.6957 0.599495C23.6967 -1.76339 31.768 3.07557 33.4695 11.2961C33.6804 12.3007 33.7226 13.3619 33.7507 14.4089C33.7929 16.0502 33.7648 17.6915 33.7648 19.3752C31.3181 19.3752 28.9135 19.3752 26.4387 19.3752C26.4387 19.1489 26.4387 18.9366 26.4387 18.7244C26.4246 16.9416 26.4949 15.1447 26.3684 13.3761C26.1434 10.0793 23.2045 7.41932 19.886 7.39102C16.4972 7.36272 13.488 9.90954 13.2068 13.2063C13.0521 15.0173 13.1364 16.8426 13.1083 18.6678C13.1083 18.88 13.1083 19.1064 13.1083 19.3752Z" fill="#FD5E65"/>
<path d="M34.5817 43.5559C34.6942 43.9662 34.7645 44.2916 34.8629 44.6171C34.9895 45.084 34.8067 45.3811 34.3567 45.4943C33.2458 45.7773 32.149 46.0603 31.0382 46.3149C30.6023 46.414 30.321 46.2159 30.2085 45.7914C29.8851 44.5605 29.5476 43.3436 29.2523 42.0985C29.1961 41.8863 29.2383 41.5892 29.3508 41.3911C31.5725 37.5001 33.7942 33.6233 36.03 29.7323C36.0581 29.6899 36.1003 29.6474 36.1706 29.5767C38.1252 30.7086 40.0798 31.8405 41.9921 32.9583C41.7812 34.3307 40.7125 34.5147 39.7282 34.7128C39.7845 35.307 40.0235 35.9296 39.8126 36.2974C39.6017 36.6653 38.9548 36.7785 38.4064 37.0473C38.4627 37.2454 38.533 37.5284 38.6033 37.8114C38.772 38.4764 38.6314 38.7169 37.9846 38.9009C37.7174 38.9716 37.4502 39.0565 37.1268 39.1555C37.2112 39.5093 37.2815 39.8347 37.3799 40.1743C37.5065 40.6412 37.3377 40.9242 36.8878 41.0657C36.5644 41.1647 36.255 41.2496 35.8613 41.3628C35.9316 41.6741 36.016 41.9712 36.0863 42.2683C36.2409 42.8909 36.1003 43.1314 35.4816 43.3154C35.1863 43.4002 34.9051 43.471 34.5817 43.5559Z" fill="#FD5E65"/>
<path d="M48.7408 20.7476C48.7408 22.7427 47.1237 24.3698 45.1692 24.3698C43.1584 24.3698 41.5554 22.7427 41.5694 20.7193C41.5694 18.7385 43.1865 17.1396 45.1832 17.1396C47.1519 17.1396 48.7408 18.7385 48.7408 20.7476Z" fill="#FD5E65"/>
<path d="M18.5659 38.7311C18.5659 37.6133 18.5519 36.4956 18.58 35.3919C18.594 34.8684 18.4112 34.5571 17.9472 34.3025C16.4145 33.4535 15.6833 31.6849 16.1333 30.0012C16.5832 28.3174 18.1019 27.1572 19.8455 27.1855C21.5892 27.2138 23.0375 28.3882 23.4593 30.1143C23.8531 31.7415 23.1359 33.4535 21.6595 34.2742C21.1533 34.5571 20.9845 34.8967 20.9986 35.4485C21.0267 37.6699 21.0126 39.9055 21.0126 42.1269C21.0126 42.8768 20.6189 43.372 20.0002 43.471C19.2128 43.5842 18.6081 43.0607 18.594 42.2259C18.5519 41.0657 18.5659 39.8913 18.5659 38.7311Z" fill="#FD5E65"/>
</svg>
