<svg width="50" height="50" viewBox="0 0 50 50" fill="none" xmlns="http://www.w3.org/2000/svg">
<path d="M2.15426 50C1.30778 49.6095 1.04733 48.9456 1.06036 48.0343C1.09942 45.3788 1.07339 42.7362 1.07339 40.0807C1.07339 39.7943 1.03431 39.586 0.734786 39.4298C0.14876 39.1304 -0.111702 38.4535 0.0445715 37.8547C0.213868 37.2038 0.747802 36.7612 1.41196 36.7222C1.56824 36.7092 1.73753 36.7222 1.8938 36.7222C17.2737 36.7222 32.6536 36.7222 48.0335 36.7092C48.9451 36.7092 49.6093 36.9435 50 37.7896C50 38.05 50 38.3103 50 38.5707C49.8567 38.7789 49.7656 39.0523 49.5702 39.1955C49.2316 39.4298 49.2186 39.7292 49.2186 40.0807C49.2317 42.7362 49.1926 45.3788 49.2316 48.0343C49.2447 48.9456 48.9842 49.6095 48.1377 50C45.9239 50 43.71 50 41.4961 50C41.4961 49.0237 41.4961 48.0474 41.4961 47.071C41.4831 46.1598 40.9492 45.574 40.0376 45.509C39.165 45.4439 38.6311 44.9232 38.566 44.051C38.4878 43.1137 37.9148 42.58 36.9642 42.58C29.0724 42.58 21.1936 42.58 13.3018 42.58C12.3511 42.58 11.7781 43.1137 11.7 44.051C11.6349 44.9102 11.1009 45.4309 10.2284 45.509C9.32981 45.5871 8.78286 46.1598 8.76984 47.071C8.75682 48.0474 8.76984 49.0237 8.76984 50C6.58201 50 4.36813 50 2.15426 50Z" fill="#FF7502"/>
<path d="M11.7262 50C11.7262 49.9349 11.7262 49.8698 11.7262 49.8047C11.6221 48.8414 11.6611 48.0213 12.8071 47.5787C13.5234 47.3054 13.9662 46.5504 14.2787 45.8214C14.3699 45.5871 14.5001 45.509 14.7476 45.509C21.6887 45.522 28.6429 45.522 35.584 45.509C35.8314 45.509 35.9486 45.5871 36.0528 45.8214C36.4956 46.8498 37.2509 47.5918 38.2667 48.0474C38.5141 48.1515 38.6183 48.2687 38.6053 48.542C38.5792 49.0237 38.5923 49.5183 38.5923 50C29.6326 50 20.6859 50 11.7262 50Z" fill="#FF7502"/>
<path d="M7.42822 10.0495C6.07385 11.1169 4.60229 11.4423 2.97444 10.8566C1.32054 10.2577 0.148505 8.66962 0.122459 6.91226C0.0964137 5.10284 0.109437 3.30643 0.122459 1.49701C0.122459 0.637855 0.74754 0.0390531 1.60704 0.0130182C1.7503 0.0130182 1.89356 0.0130182 2.04984 0.0130182C17.3646 0.0130182 32.6794 0.0260349 47.9812 0C49.2574 0 49.9997 0.598803 49.9346 1.97865C49.8695 3.47566 49.9086 4.97266 49.9216 6.46967C49.9346 8.34418 49.1923 9.80214 47.4994 10.6613C45.8194 11.5204 44.1916 11.2731 42.707 10.1276C42.6809 10.1146 42.6549 10.1015 42.6028 10.0755C40.6624 11.5204 38.709 11.5335 36.7556 10.0755C34.4115 11.5335 33.031 11.5335 30.8823 10.0625C28.9419 11.5074 26.9755 11.5335 25.0351 10.0755C22.691 11.5204 21.2975 11.5204 19.1487 10.0625C18.3023 10.7394 17.3386 11.1559 16.2186 11.1559C15.1247 11.1429 14.161 10.7654 13.3276 10.0755C10.9444 11.5074 9.55094 11.5074 7.42822 10.0495Z" fill="#FF7502"/>
<path d="M24.9964 14.2281C28.3823 14.2151 31.1171 16.9357 31.104 20.3202C31.104 23.6787 28.3953 26.3864 25.0354 26.4124C21.6625 26.4254 18.9277 23.6918 18.9277 20.3202C18.9277 16.9487 21.6235 14.2411 24.9964 14.2281Z" fill="#FF7502"/>
<path d="M3.06641 14.0068C4.01707 14.0068 4.95471 14.0068 5.93142 14.0068C5.93142 20.5545 5.93142 27.1414 5.93142 33.7542C4.98076 33.7542 4.04312 33.7542 3.06641 33.7542C3.06641 27.1674 3.06641 20.5806 3.06641 14.0068Z" fill="#FF7502"/>
<path d="M46.9659 33.7672C45.9892 33.7672 45.0516 33.7672 44.0879 33.7672C44.0879 27.1674 44.0879 20.5806 44.0879 14.0198C45.0516 14.0198 45.9892 14.0198 46.9659 14.0198C46.9659 20.5675 46.9659 27.1414 46.9659 33.7672Z" fill="#FF7502"/>
<path d="M17.3784 25.2799C17.9644 25.9178 18.5374 26.5166 19.0974 27.1154C19.1625 27.1935 19.2536 27.2976 19.2536 27.4018C19.2667 29.5106 19.2667 31.6194 19.2667 33.7543C17.4695 33.7543 15.7245 33.7543 13.9013 33.7543C13.9013 33.4679 13.8883 33.1685 13.9013 32.8691C13.9664 31.7496 13.9143 30.6171 14.1227 29.5236C14.4482 27.7012 15.8677 25.9959 17.3784 25.2799Z" fill="#FF7502"/>
<path d="M32.6669 25.2538C34.4901 26.3083 35.6882 27.8573 36.0138 29.9531C36.2091 31.1898 36.144 32.4655 36.1961 33.7542C34.3599 33.7542 32.6018 33.7542 30.7786 33.7542C30.7786 33.611 30.7786 33.4548 30.7786 33.2986C30.7786 31.4241 30.7656 29.5626 30.7917 27.6881C30.7917 27.4538 30.9349 27.1804 31.0912 26.9852C31.573 26.4124 32.107 25.8657 32.6669 25.2538Z" fill="#FF7502"/>
<path d="M22.1963 33.7542C22.1963 32.1271 22.1963 30.5389 22.1963 28.8987C24.0716 29.4715 25.9208 29.4845 27.8091 28.8987C27.8091 30.5259 27.8091 32.1271 27.8091 33.7542C25.9599 33.7542 24.0976 33.7542 22.1963 33.7542Z" fill="#FF7502"/>
</svg>
